<svg fill="none" height="72" viewBox="0 0 200 72" width="200" xmlns="http://www.w3.org/2000/svg" xmlns:xlink="http://www.w3.org/1999/xlink"><linearGradient id="a" gradientUnits="userSpaceOnUse" x1="18.9329" x2="97.4049" y1="55.4756" y2="55.4756"><stop offset="0" stop-color="#70a443"/><stop offset=".616686" stop-color="#bcd64a"/></linearGradient><linearGradient id="b" gradientUnits="userSpaceOnUse" x1="0" x2="144.43" y1="39.6882" y2="39.6882"><stop offset=".383314" stop-color="#bcd64a"/><stop offset="1" stop-color="#70a443"/></linearGradient><clipPath id="c"><path d="m0 0h200v72h-200z"/></clipPath><g clip-path="url(#c)" clip-rule="evenodd" fill-rule="evenodd"><path d="m30.7049 39.3087c39.239 38.5902 66.3207-3.9817 66.7-4.2987-22.1525 11.9536-47.383 14.2657-78.472-10.333 4.0488 5.7711 7.9086 10.295 11.772 14.6317z" fill="url(#a)"/><path d="m100.433 11.1641c-26.4464 10.404-58.8745 20.8105-100.433-4.93884 14.778 12.44804 60.9537 59.05924 113.318 14.72354 10.469-8.8569 19.514-15.67703 31.112-20.340472-1.996-.417384-4.032-.6083278-6.11-.6083278-11.232-.001224-23.698 5.5814398-37.887 11.1640998z" fill="url(#b)"/><path d="m133.04 55.1374-5.214-12.4701-5.226 12.464zm-23.306 10.4983 13.135-29.7812c.917-2.0502 2.59-3.2876 4.842-3.2925l.494.0049c2.26-.0049 3.871 1.2264 4.775 3.2876l13.164 29.7812c.267.5912.395 1.1138.395 1.6585 0 2.2314-1.692 4.0159-3.921 4.0159-1.931 0-3.227-1.1456-3.97-2.8678l-2.53-5.9548-16.594.0135-2.633 6.2057c-.696 1.6218-2.095 2.6034-3.823 2.6034-2.161 0-3.822-1.7356-3.822-3.8996 0-.59.217-1.1836.488-1.7748zm61.742 1.3425c-.917-.6488-1.561-1.8262-1.561-3.1323 0-2.1481 1.712-3.8348 3.871-3.847 1.069.0122 1.835.3868 2.37.7687 2.855 2.0979 5.969 3.4039 9.64 3.4039 3.387-.0024 5.43-1.3415 5.43-3.5753v-.1101c0-2.109-1.277-3.1763-7.59-4.8042-7.592-1.9425-12.497-4.038-12.497-11.5681v-.1003c0-6.852 5.494-11.3979 13.196-11.3979 4.578 0 8.54 1.1775 11.964 3.3452.905.5349 1.815 1.6879 1.815 3.2974 0 2.1628-1.726 3.8287-3.878 3.8385-.8 0-1.436-.2167-2.083-.5961-2.755-1.623-5.351-2.5386-7.933-2.5386-3.17 0-4.828 1.4517-4.828 3.3012v.093c0 2.5067 1.611 3.3097 8.123 4.9768 7.646 1.9914 11.951 4.7601 11.951 11.3538v.1089c0 7.4982-5.712 11.7235-13.828 11.7235-4.956 0-9.964-1.5031-14.162-4.541zm-13.348-34.1582c-2.312 0-4.153 1.8421-4.158 4.1714l.005 30.1459c0 2.3244 1.841 4.1726 4.153 4.1653 2.304.0073 4.153-1.8287 4.153-4.1653v-30.1459c0-2.3293-1.849-4.1714-4.153-4.1714z" fill="#624f47"/></g></svg>