<svg version="1.1" id="Layer_1" xmlns="http://www.w3.org/2000/svg" xmlns:xlink="http://www.w3.org/1999/xlink" x="0px" y="0px"
	 width="100%" viewBox="0 0 1200 400" enable-background="new 0 0 1200 400" xml:space="preserve">
<path fill="none" opacity="1.000000" stroke="none" 
	d="
M758.000000,401.000000 
	C505.333344,401.000000 253.166672,401.000000 1.000000,401.000000 
	C1.000000,267.666656 1.000000,134.333328 1.000000,1.000000 
	C401.000000,1.000000 801.000000,1.000000 1201.000000,1.000000 
	C1201.000000,134.333328 1201.000000,267.666656 1201.000000,401.000000 
	C1053.500000,401.000000 906.000000,401.000000 758.000000,401.000000 
M194.302597,95.178658 
	C190.762115,97.264122 187.221649,99.349586 182.931183,101.876816 
	C189.276535,105.318596 194.617615,108.215652 200.241562,111.752632 
	C204.828873,114.446213 209.416183,117.139793 214.656082,120.139336 
	C218.438614,122.370773 222.221130,124.602219 226.657227,127.139359 
	C231.772369,130.038422 236.887497,132.937500 242.646652,136.132309 
	C245.765823,138.032578 248.885010,139.932846 252.651245,142.133591 
	C257.753662,145.128113 262.856110,148.122635 268.268585,151.748306 
	C271.498505,153.535919 274.728424,155.323547 278.269165,157.750259 
	C282.166046,159.872406 286.062958,161.994553 290.264343,164.751648 
	C293.510681,166.445465 296.757050,168.139297 300.644806,170.123932 
	C303.097992,171.693085 305.551147,173.262238 308.670380,175.139969 
	C314.160583,176.811874 315.862854,180.586258 315.064575,186.052429 
	C314.734253,188.314209 315.111450,190.679306 315.014099,193.923798 
	C315.065033,200.614822 315.115967,207.305832 315.014038,214.915222 
	C314.731445,221.276123 314.448853,227.637024 314.014587,234.924591 
	C314.065887,243.281616 314.117157,251.638641 314.015717,260.922546 
	C314.065491,268.280457 314.115265,275.638336 314.011627,283.922852 
	C314.011627,298.893555 314.011627,313.864258 314.011627,329.785583 
	C319.656677,326.415192 324.329681,323.625153 329.694427,320.790009 
	C331.797394,319.470459 333.900391,318.150940 336.698883,316.787018 
	C339.147400,315.228851 341.595917,313.670654 344.755920,312.003906 
	C346.872742,310.686249 348.989563,309.368591 351.789246,307.998016 
	C353.205719,307.037964 354.622223,306.077911 356.750763,305.004364 
	C358.847839,303.708618 360.944946,302.412872 363.717896,301.005920 
	C364.824677,300.375854 365.931427,299.745758 367.678223,298.845276 
	C369.467529,297.600433 371.256836,296.355591 373.773773,295.003601 
	C376.429138,293.542603 379.084473,292.081573 382.290894,290.175476 
	C387.446350,288.695892 390.208527,285.677399 388.984467,279.076111 
	C388.934052,274.050232 388.883667,269.024384 388.984192,263.072693 
	C388.933960,256.714661 388.883759,250.356628 388.984344,243.072250 
	C388.934113,234.714157 388.883881,226.356079 388.984070,217.071640 
	C388.989624,191.129318 388.971008,165.186935 389.035492,139.244766 
	C389.042450,136.438263 388.607666,134.464020 385.759491,132.880508 
	C374.087860,126.391342 362.596954,119.577003 350.739777,112.235443 
	C346.839905,110.117172 342.940002,107.998909 338.742096,105.235741 
	C335.841278,103.784615 332.940491,102.333488 329.762054,100.255653 
	C327.841492,99.225586 325.920959,98.195518 323.344269,96.866600 
	C318.896301,94.299789 314.448364,91.732979 309.349548,88.869781 
	C305.912903,86.873619 302.476227,84.877457 298.743347,82.240707 
	C295.842010,80.787750 292.940704,79.334793 289.772797,77.237343 
	C287.529175,76.119019 285.285583,75.000702 282.773071,73.237236 
	C279.182587,71.214172 275.592102,69.191109 271.355225,66.871277 
	C268.917145,65.542389 266.479034,64.213501 263.765137,62.232491 
	C260.645477,60.488628 257.761322,56.929901 253.183746,61.000816 
	C251.108627,62.296532 249.033493,63.592243 246.246429,64.992622 
	C244.150040,66.289177 242.053635,67.585732 239.234589,68.988136 
	C236.141815,70.953979 233.049042,72.919823 229.245346,74.990715 
	C227.148590,76.287483 225.051834,77.584251 222.227295,78.987457 
	C218.447937,81.309830 214.668564,83.632202 210.184326,86.001877 
	C207.958313,87.389343 205.732315,88.776817 202.754303,90.070969 
	C200.154984,91.675995 197.555649,93.281021 194.302597,95.178658 
M137.760880,280.781799 
	C142.195450,278.229248 146.630035,275.676697 151.703094,272.825134 
	C157.168106,269.562531 162.633102,266.299896 168.804291,262.981964 
	C171.889008,261.022552 174.973724,259.063171 178.779343,257.009705 
	C183.939880,255.149368 187.439987,252.223053 185.967331,245.096283 
	C185.921844,240.741379 185.876373,236.386475 185.959610,231.184326 
	C186.189484,227.984787 186.189621,225.050964 183.201599,222.692657 
	C171.284668,213.287094 159.447891,203.777100 147.719788,194.137466 
	C145.194992,192.062256 143.245804,189.286743 141.745987,186.981155 
	C153.482361,193.693008 165.218719,200.404861 177.284409,207.736008 
	C183.190552,211.102020 189.096680,214.468048 195.652237,218.142151 
	C199.102509,220.039322 202.552765,221.936493 206.644928,224.139984 
	C210.748825,226.464798 214.852707,228.789627 219.274094,231.783447 
	C219.904709,233.854767 220.535324,235.926071 221.017822,238.924652 
	C220.995819,248.246902 220.973816,257.569153 220.213516,267.367981 
	C220.197983,274.911285 220.182449,282.454590 220.020340,290.925385 
	C220.020340,306.889191 220.020340,322.852966 220.020340,340.135864 
	C225.825089,336.634216 230.571854,333.770752 236.096191,330.937592 
	C238.412582,329.661957 240.728958,328.386353 243.761642,327.002441 
	C246.520065,325.375854 249.278488,323.749298 252.754059,322.003357 
	C255.538727,320.351868 258.323395,318.700409 261.808167,316.994690 
	C263.538971,315.940796 265.269745,314.886871 267.689117,313.783112 
	C269.459747,312.800507 271.230347,311.817871 273.716003,310.765900 
	C279.804749,308.266388 278.303131,302.724579 278.977753,297.070160 
	C278.929626,288.045837 278.881500,279.021515 278.977417,269.070129 
	C278.928467,261.711151 278.879486,254.352158 278.973663,246.066574 
	C278.984528,231.405609 279.018799,216.744553 278.967133,202.083801 
	C278.962402,200.739624 278.849213,198.647308 278.040070,198.171524 
	C270.802216,193.915497 263.396729,189.944427 255.767792,185.244873 
	C252.525513,183.458069 249.283234,181.671249 245.730865,179.252731 
	C241.834305,177.129791 237.937759,175.006851 233.729309,172.253204 
	C230.165115,170.462067 226.600922,168.670944 222.760880,166.242142 
	C219.840881,164.550430 216.920868,162.858734 213.353607,160.861374 
	C210.249359,159.202454 207.145126,157.543533 203.760742,155.244141 
	C199.852753,153.122131 195.944778,151.000107 191.715103,148.248047 
	C187.855438,146.115509 184.044998,142.366455 179.248795,147.992279 
	C177.053421,149.361801 174.858047,150.731323 171.886292,152.061829 
	C168.220261,154.358292 164.554230,156.654755 160.245972,159.230209 
	C149.547287,165.777313 138.848602,172.324402 128.102936,179.825211 
	C128.124039,187.561859 128.145126,195.298508 128.067551,203.952423 
	C128.099655,207.975830 128.131760,211.999237 128.055099,216.943771 
	C128.089767,221.303543 128.124451,225.663315 128.051743,230.936661 
	C128.092621,234.632568 128.133499,238.328476 128.059662,242.951492 
	C128.090286,248.973175 128.120911,254.994858 128.033554,261.942078 
	C128.077774,266.977570 128.121979,272.013092 128.055679,277.927124 
	C128.055679,280.513855 128.055679,283.100555 128.055679,286.586456 
	C131.520432,284.470856 134.318420,282.762421 137.760880,280.781799 
M547.000000,214.499939 
	C547.000000,221.700363 547.000000,228.900787 547.000000,236.101227 
	C545.057556,234.924713 544.056580,233.650055 543.160339,232.305511 
	C522.430603,201.205750 501.684845,170.116592 481.039642,138.960785 
	C479.223602,136.220215 477.387115,134.731873 473.852539,134.907364 
	C467.370667,135.229233 460.852173,135.208115 454.366943,134.922516 
	C450.336823,134.745041 448.897919,135.869598 448.910889,140.161255 
	C449.053223,187.311859 449.065918,234.463287 448.896118,281.613708 
	C448.879547,286.211273 450.408325,287.308899 454.643066,287.081909 
	C460.623901,286.761353 466.654999,286.696808 472.626373,287.095642 
	C477.530731,287.423218 479.184052,286.129913 479.134644,280.842590 
	C478.855835,251.021729 479.000000,221.196945 479.000000,191.373489 
	C479.000000,189.635025 479.000000,187.896545 479.000000,184.944702 
	C480.581604,187.147354 481.458618,188.294403 482.258148,189.493118 
	C502.905304,220.448395 523.502014,251.437546 544.280884,282.304108 
	C545.653625,284.343262 548.316772,286.619965 550.529541,286.785583 
	C557.985229,287.343750 565.510681,286.895935 573.005127,287.047363 
	C576.062439,287.109161 577.136353,285.981140 577.043518,282.966827 
	C576.879578,277.640350 576.999817,272.305145 576.999878,266.973572 
	C577.000061,224.820892 576.935425,182.667953 577.095764,140.515884 
	C577.112488,136.111954 575.926147,134.650833 571.486084,134.906754 
	C565.175781,135.270447 558.812988,135.273132 552.503113,134.906021 
	C548.047668,134.646820 546.864929,136.132126 546.901917,140.524994 
	C547.106567,164.848541 547.000000,189.174698 547.000000,214.499939 
M927.501770,278.002716 
	C928.613770,279.447235 929.593323,281.023895 930.870544,282.303528 
	C932.547180,283.983429 934.410950,286.698242 936.276306,286.767792 
	C947.510620,287.186523 958.768372,286.975830 971.529114,286.975830 
	C954.410828,267.016693 938.193176,248.107712 921.716248,228.896317 
	C935.997986,212.470978 950.022644,196.341339 964.047302,180.211700 
	C963.794250,179.807892 963.541138,179.404099 963.288025,179.000290 
	C953.841309,179.000290 944.384705,178.761047 934.954346,179.153976 
	C932.312073,179.264084 929.015503,180.567276 927.276367,182.471466 
	C920.467468,189.926514 914.189453,197.864548 907.658936,205.576324 
	C903.448975,210.547897 899.142639,215.437973 894.000000,221.380966 
	C894.000000,218.228577 894.000000,216.448837 894.000000,214.669098 
	C894.000000,190.012604 893.875488,165.354935 894.109009,140.700653 
	C894.153687,135.988785 892.688538,134.660431 888.172607,134.910843 
	C881.861267,135.260773 875.503113,135.245346 869.189819,134.913574 
	C864.913452,134.688843 863.900269,136.286224 863.919434,140.336349 
	C864.066162,171.322861 863.999939,202.310394 864.000000,233.297607 
	C864.000000,249.457596 864.133118,265.619415 863.909729,281.776337 
	C863.851440,285.987640 865.189453,287.262573 869.304382,287.081848 
	C876.121765,286.782440 882.965637,286.864594 889.790710,287.056458 
	C893.117004,287.149994 894.115723,285.882751 894.053162,282.682007 
	C893.890442,274.355286 893.999573,266.023285 893.999878,257.693390 
	C894.000122,250.781631 894.000000,243.869858 894.000000,236.958099 
	C894.379211,236.815552 894.758362,236.673019 895.137573,236.530472 
	C905.762512,250.179123 916.387451,263.827759 927.501770,278.002716 
M998.464722,179.801239 
	C986.416077,185.709732 978.579407,194.831467 975.635193,208.225739 
	C974.678162,212.579391 976.059021,213.109116 979.641235,213.038025 
	C986.302551,212.905792 992.972473,212.864456 999.630371,213.064789 
	C1002.399841,213.148132 1003.665527,212.145828 1004.800781,209.658463 
	C1008.729553,201.050186 1017.916199,197.152466 1028.861450,199.152176 
	C1039.906982,201.170212 1042.183350,207.813568 1043.931641,216.997040 
	C1044.512085,220.045212 1043.028442,221.101929 1040.003296,221.043976 
	C1032.509033,220.900436 1024.964722,220.482590 1017.525696,221.138855 
	C1009.496826,221.847137 1001.246948,222.676178 993.647644,225.152786 
	C967.078247,233.811768 966.899719,265.531891 981.835815,278.329559 
	C988.671509,284.186646 996.753174,286.273529 1005.601257,287.269592 
	C1020.591492,288.957092 1033.130371,285.131134 1042.990356,273.470428 
	C1043.773438,272.544373 1044.550903,271.613617 1045.632935,270.325714 
	C1046.494385,275.190430 1047.484985,279.396790 1047.904053,283.659393 
	C1048.163818,286.300781 1049.214355,287.060242 1051.652466,287.025238 
	C1057.815308,286.936859 1063.981934,286.916962 1070.143677,287.034698 
	C1072.848022,287.086365 1074.081055,286.229645 1074.034302,283.337952 
	C1073.647461,259.389954 1073.900146,235.415924 1072.835693,211.499771 
	C1072.059937,194.068619 1060.112671,181.066193 1043.162720,177.043472 
	C1028.285278,173.512604 1013.545898,173.702835 998.464722,179.801239 
M701.988708,222.827026 
	C700.802368,210.746841 696.695801,199.819244 688.329590,190.912216 
	C676.762634,178.597595 662.245056,174.146591 645.523926,174.901917 
	C625.163940,175.821564 609.988525,184.815765 600.281982,202.584305 
	C593.902466,214.262238 592.553040,226.922256 593.894531,240.152023 
	C595.444092,255.433777 601.553650,268.278717 614.140808,276.881775 
	C634.928162,291.089539 656.823975,291.888458 678.691406,279.046265 
	C689.112000,272.926514 695.351807,263.389343 699.296814,251.072250 
	C689.260193,251.072250 680.003845,251.018723 670.750305,251.155838 
	C669.834534,251.169418 668.649780,252.156418 668.073669,253.015945 
	C662.134888,261.875763 653.480896,264.034332 643.590393,262.957855 
	C632.170654,261.714905 622.647827,250.604080 623.620483,239.006348 
	C625.490967,239.006348 627.439270,239.006348 629.387512,239.006332 
	C651.551208,239.006287 673.716125,238.881546 695.877625,239.103058 
	C700.773376,239.152008 702.512817,237.502457 702.053345,232.755371 
	C701.765625,229.783554 701.998596,226.761353 701.988708,222.827026 
M747.006348,230.500000 
	C747.006348,222.835312 747.006348,215.170639 747.006287,207.505951 
	C747.006165,185.011826 747.009216,162.517700 747.001465,140.023575 
	C747.000610,137.561264 747.559753,134.883102 743.505310,134.961578 
	C735.510437,135.116272 727.509766,135.061539 719.512878,134.975906 
	C716.945618,134.948410 715.919739,135.945007 715.977539,138.513489 
	C716.082520,143.176498 716.000427,147.843674 716.000366,152.509109 
	C715.999817,195.497879 716.062683,238.486893 715.905029,281.475098 
	C715.888977,285.866241 717.054260,287.331635 721.506348,287.095490 
	C728.318726,286.734070 735.173340,286.790771 741.992554,287.080658 
	C745.963379,287.249451 747.133606,285.933502 747.088196,281.985870 
	C746.894836,265.159149 747.006226,248.328934 747.006348,230.500000 
M766.000000,279.413940 
	C766.069214,287.744598 765.152588,286.961273 773.438660,286.996277 
	C778.937256,287.019501 784.439148,286.886993 789.933350,287.042999 
	C792.908081,287.127502 794.049622,286.131744 794.045166,283.039429 
	C793.976807,235.051270 793.969177,187.062958 794.056702,139.074860 
	C794.062988,135.598267 792.598572,134.870712 789.547729,134.954025 
	C783.720215,135.113190 777.864868,135.299194 772.059631,134.905731 
	C767.275635,134.581512 765.874512,136.111832 765.893494,140.972183 
	C766.072693,186.793594 766.000000,232.615997 766.000000,279.413940 
M815.000000,258.500000 
	C815.000977,266.663147 815.096436,274.827942 814.954041,282.988586 
	C814.901001,286.024719 815.984070,287.112061 819.016113,287.046112 
	C826.009827,286.893951 833.011414,286.891327 840.004944,287.047150 
	C843.061707,287.115265 844.049805,285.976990 844.043091,282.969299 
	C843.970093,250.316849 843.969299,217.664108 844.043762,185.011673 
	C844.050720,181.980911 843.018677,180.881729 839.984863,180.954819 
	C833.491455,181.111298 826.976074,181.273926 820.499695,180.906418 
	C816.037292,180.653183 814.864502,182.147476 814.902649,186.531403 
	C815.108276,210.186081 815.000061,233.843521 815.000000,258.500000 
M847.058411,155.267685 
	C849.475281,148.358948 847.055054,142.912552 841.849792,138.383850 
	C835.199707,132.598267 824.159973,132.527863 817.380493,138.154480 
	C811.165466,143.312576 809.529968,152.628387 813.957642,159.753342 
	C818.350464,166.822189 825.472412,167.465942 832.879150,166.988663 
	C840.022278,166.528351 844.477417,162.592773 847.058411,155.267685 
z"/>
<path fill="#1C0F3A" opacity="1.000000" stroke="none" 
	d="
M547.000000,213.999954 
	C547.000000,189.174698 547.106567,164.848541 546.901917,140.524994 
	C546.864929,136.132126 548.047668,134.646820 552.503113,134.906021 
	C558.812988,135.273132 565.175781,135.270447 571.486084,134.906754 
	C575.926147,134.650833 577.112488,136.111954 577.095764,140.515884 
	C576.935425,182.667953 577.000061,224.820892 576.999878,266.973572 
	C576.999817,272.305145 576.879578,277.640350 577.043518,282.966827 
	C577.136353,285.981140 576.062439,287.109161 573.005127,287.047363 
	C565.510681,286.895935 557.985229,287.343750 550.529541,286.785583 
	C548.316772,286.619965 545.653625,284.343262 544.280884,282.304108 
	C523.502014,251.437546 502.905304,220.448395 482.258148,189.493118 
	C481.458618,188.294403 480.581604,187.147354 479.000000,184.944702 
	C479.000000,187.896545 479.000000,189.635025 479.000000,191.373489 
	C479.000000,221.196945 478.855835,251.021729 479.134644,280.842590 
	C479.184052,286.129913 477.530731,287.423218 472.626373,287.095642 
	C466.654999,286.696808 460.623901,286.761353 454.643066,287.081909 
	C450.408325,287.308899 448.879547,286.211273 448.896118,281.613708 
	C449.065918,234.463287 449.053223,187.311859 448.910889,140.161255 
	C448.897919,135.869598 450.336823,134.745041 454.366943,134.922516 
	C460.852173,135.208115 467.370667,135.229233 473.852539,134.907364 
	C477.387115,134.731873 479.223602,136.220215 481.039642,138.960785 
	C501.684845,170.116592 522.430603,201.205750 543.160339,232.305511 
	C544.056580,233.650055 545.057556,234.924713 547.000000,236.101227 
	C547.000000,228.900787 547.000000,221.700363 547.000000,213.999954 
z"/>
<path fill="#1C0F3A" opacity="1.000000" stroke="none" 
	d="
M927.257080,277.739563 
	C916.387451,263.827759 905.762512,250.179123 895.137573,236.530472 
	C894.758362,236.673019 894.379211,236.815552 894.000000,236.958099 
	C894.000000,243.869858 894.000122,250.781631 893.999878,257.693390 
	C893.999573,266.023285 893.890442,274.355286 894.053162,282.682007 
	C894.115723,285.882751 893.117004,287.149994 889.790710,287.056458 
	C882.965637,286.864594 876.121765,286.782440 869.304382,287.081848 
	C865.189453,287.262573 863.851440,285.987640 863.909729,281.776337 
	C864.133118,265.619415 864.000000,249.457596 864.000000,233.297607 
	C863.999939,202.310394 864.066162,171.322861 863.919434,140.336349 
	C863.900269,136.286224 864.913452,134.688843 869.189819,134.913574 
	C875.503113,135.245346 881.861267,135.260773 888.172607,134.910843 
	C892.688538,134.660431 894.153687,135.988785 894.109009,140.700653 
	C893.875488,165.354935 894.000000,190.012604 894.000000,214.669098 
	C894.000000,216.448837 894.000000,218.228577 894.000000,221.380966 
	C899.142639,215.437973 903.448975,210.547897 907.658936,205.576324 
	C914.189453,197.864548 920.467468,189.926514 927.276367,182.471466 
	C929.015503,180.567276 932.312073,179.264084 934.954346,179.153976 
	C944.384705,178.761047 953.841309,179.000290 963.288025,179.000290 
	C963.541138,179.404099 963.794250,179.807892 964.047302,180.211700 
	C950.022644,196.341339 935.997986,212.470978 921.716248,228.896317 
	C938.193176,248.107712 954.410828,267.016693 971.529114,286.975830 
	C958.768372,286.975830 947.510620,287.186523 936.276306,286.767792 
	C934.410950,286.698242 932.547180,283.983429 930.870544,282.303528 
	C929.593323,281.023895 928.613770,279.447235 927.257080,277.739563 
z"/>
<path fill="#1C0F3A" opacity="1.000000" stroke="none" 
	d="
M998.804321,179.626587 
	C1013.545898,173.702835 1028.285278,173.512604 1043.162720,177.043472 
	C1060.112671,181.066193 1072.059937,194.068619 1072.835693,211.499771 
	C1073.900146,235.415924 1073.647461,259.389954 1074.034302,283.337952 
	C1074.081055,286.229645 1072.848022,287.086365 1070.143677,287.034698 
	C1063.981934,286.916962 1057.815308,286.936859 1051.652466,287.025238 
	C1049.214355,287.060242 1048.163818,286.300781 1047.904053,283.659393 
	C1047.484985,279.396790 1046.494385,275.190430 1045.632935,270.325714 
	C1044.550903,271.613617 1043.773438,272.544373 1042.990356,273.470428 
	C1033.130371,285.131134 1020.591492,288.957092 1005.601257,287.269592 
	C996.753174,286.273529 988.671509,284.186646 981.835815,278.329559 
	C966.899719,265.531891 967.078247,233.811768 993.647644,225.152786 
	C1001.246948,222.676178 1009.496826,221.847137 1017.525696,221.138855 
	C1024.964722,220.482590 1032.509033,220.900436 1040.003296,221.043976 
	C1043.028442,221.101929 1044.512085,220.045212 1043.931641,216.997040 
	C1042.183350,207.813568 1039.906982,201.170212 1028.861450,199.152176 
	C1017.916199,197.152466 1008.729553,201.050186 1004.800781,209.658463 
	C1003.665527,212.145828 1002.399841,213.148132 999.630371,213.064789 
	C992.972473,212.864456 986.302551,212.905792 979.641235,213.038025 
	C976.059021,213.109116 974.678162,212.579391 975.635193,208.225739 
	C978.579407,194.831467 986.416077,185.709732 998.804321,179.626587 
M1021.726746,264.228485 
	C1033.245117,262.732605 1041.682739,252.944336 1042.204468,240.060074 
	C1033.406738,240.060074 1024.572510,239.490555 1015.843018,240.203979 
	C1004.883240,241.099655 999.448303,251.205750 1005.285767,259.277771 
	C1009.037476,264.465637 1014.964600,265.024017 1021.726746,264.228485 
z"/>
<path fill="#1C0F3A" opacity="1.000000" stroke="none" 
	d="
M701.993286,223.294388 
	C701.998596,226.761353 701.765625,229.783554 702.053345,232.755371 
	C702.512817,237.502457 700.773376,239.152008 695.877625,239.103058 
	C673.716125,238.881546 651.551208,239.006287 629.387512,239.006332 
	C627.439270,239.006348 625.490967,239.006348 623.620483,239.006348 
	C622.647827,250.604080 632.170654,261.714905 643.590393,262.957855 
	C653.480896,264.034332 662.134888,261.875763 668.073669,253.015945 
	C668.649780,252.156418 669.834534,251.169418 670.750305,251.155838 
	C680.003845,251.018723 689.260193,251.072250 699.296814,251.072250 
	C695.351807,263.389343 689.112000,272.926514 678.691406,279.046265 
	C656.823975,291.888458 634.928162,291.089539 614.140808,276.881775 
	C601.553650,268.278717 595.444092,255.433777 593.894531,240.152023 
	C592.553040,226.922256 593.902466,214.262238 600.281982,202.584305 
	C609.988525,184.815765 625.163940,175.821564 645.523926,174.901917 
	C662.245056,174.146591 676.762634,178.597595 688.329590,190.912216 
	C696.695801,199.819244 700.802368,210.746841 701.993286,223.294388 
M646.500000,219.998962 
	C654.883301,219.998962 663.266602,219.998962 671.633057,219.998962 
	C671.369019,207.809357 660.684204,198.189423 647.275757,198.871765 
	C635.276123,199.482407 623.564819,209.363785 624.113098,219.998962 
	C631.226685,219.998962 638.363403,219.998962 646.500000,219.998962 
z"/>
<path fill="#1C0F3A" opacity="1.000000" stroke="none" 
	d="
M747.006348,231.000000 
	C747.006226,248.328934 746.894836,265.159149 747.088196,281.985870 
	C747.133606,285.933502 745.963379,287.249451 741.992554,287.080658 
	C735.173340,286.790771 728.318726,286.734070 721.506348,287.095490 
	C717.054260,287.331635 715.888977,285.866241 715.905029,281.475098 
	C716.062683,238.486893 715.999817,195.497879 716.000366,152.509109 
	C716.000427,147.843674 716.082520,143.176498 715.977539,138.513489 
	C715.919739,135.945007 716.945618,134.948410 719.512878,134.975906 
	C727.509766,135.061539 735.510437,135.116272 743.505310,134.961578 
	C747.559753,134.883102 747.000610,137.561264 747.001465,140.023575 
	C747.009216,162.517700 747.006165,185.011826 747.006287,207.505951 
	C747.006348,215.170639 747.006348,222.835312 747.006348,231.000000 
z"/>
<path fill="#1C0F3A" opacity="1.000000" stroke="none" 
	d="
M766.000000,278.926025 
	C766.000000,232.615997 766.072693,186.793594 765.893494,140.972183 
	C765.874512,136.111832 767.275635,134.581512 772.059631,134.905731 
	C777.864868,135.299194 783.720215,135.113190 789.547729,134.954025 
	C792.598572,134.870712 794.062988,135.598267 794.056702,139.074860 
	C793.969177,187.062958 793.976807,235.051270 794.045166,283.039429 
	C794.049622,286.131744 792.908081,287.127502 789.933350,287.042999 
	C784.439148,286.886993 778.937256,287.019501 773.438660,286.996277 
	C765.152588,286.961273 766.069214,287.744598 766.000000,278.926025 
z"/>
<path fill="#1C0F3A" opacity="1.000000" stroke="none" 
	d="
M815.000000,258.000000 
	C815.000061,233.843521 815.108276,210.186081 814.902649,186.531403 
	C814.864502,182.147476 816.037292,180.653183 820.499695,180.906418 
	C826.976074,181.273926 833.491455,181.111298 839.984863,180.954819 
	C843.018677,180.881729 844.050720,181.980911 844.043762,185.011673 
	C843.969299,217.664108 843.970093,250.316849 844.043091,282.969299 
	C844.049805,285.976990 843.061707,287.115265 840.004944,287.047150 
	C833.011414,286.891327 826.009827,286.893951 819.016113,287.046112 
	C815.984070,287.112061 814.901001,286.024719 814.954041,282.988586 
	C815.096436,274.827942 815.000977,266.663147 815.000000,258.000000 
z"/>
<path fill="#ED9CFF" opacity="1.000000" stroke="none" 
	d="
M388.834381,279.999207 
	C390.208527,285.677399 387.446350,288.695892 381.687500,290.128265 
	C380.138947,288.169708 378.977417,286.333649 378.282196,284.335358 
	C371.531281,264.931152 364.974640,245.458740 358.130096,226.087921 
	C351.555756,207.481964 344.634796,188.998764 337.997894,170.414566 
	C331.306976,151.679047 324.725586,132.903870 318.202362,114.109230 
	C315.332977,105.841881 312.726349,97.483315 310.000397,89.166168 
	C314.448364,91.732979 318.896301,94.299789 323.672394,97.417831 
	C324.106720,99.121979 323.987457,100.352356 324.353027,101.416130 
	C329.627197,116.763344 334.865234,132.124283 340.316040,147.409164 
	C346.994629,166.136856 353.989777,184.752014 360.619995,203.496506 
	C369.135223,227.570129 377.397736,251.733109 385.870087,275.822083 
	C386.414673,277.370453 387.826172,278.613922 388.834381,279.999207 
z"/>
<path fill="#E28BFF" opacity="1.000000" stroke="none" 
	d="
M272.001617,67.168045 
	C275.592102,69.191109 279.182587,71.214172 282.905884,73.950348 
	C283.154022,75.314842 283.180054,75.997803 283.397552,76.613075 
	C292.756500,103.085129 302.157440,129.542343 311.498291,156.020752 
	C318.956055,177.161163 326.269897,198.352554 333.779907,219.474258 
	C343.464935,246.713104 353.281891,273.905029 363.042053,301.117157 
	C360.944946,302.412872 358.847839,303.708618 356.339142,304.683838 
	C343.763245,269.558380 331.632721,234.741547 319.364227,199.973358 
	C318.479645,197.466492 316.589478,195.314438 315.166870,192.997421 
	C315.111450,190.679306 314.734253,188.314209 315.064575,186.052429 
	C315.862854,180.586258 314.160583,176.811874 308.334045,174.593597 
	C307.532959,172.120651 307.227203,170.138519 306.576843,168.276764 
	C303.076019,158.255463 299.475555,148.269028 295.935822,138.261230 
	C289.684998,120.588287 283.368347,102.937851 277.261108,85.215324 
	C275.222046,79.298103 273.738892,73.189285 272.001617,67.168045 
z"/>
<path fill="#ED99FF" opacity="1.000000" stroke="none" 
	d="
M309.674988,89.017975 
	C312.726349,97.483315 315.332977,105.841881 318.202362,114.109230 
	C324.725586,132.903870 331.306976,151.679047 337.997894,170.414566 
	C344.634796,188.998764 351.555756,207.481964 358.130096,226.087921 
	C364.974640,245.458740 371.531281,264.931152 378.282196,284.335358 
	C378.977417,286.333649 380.138947,288.169708 381.411957,290.350830 
	C379.084473,292.081573 376.429138,293.542603 373.257690,294.711609 
	C371.952759,291.884644 371.243622,289.321625 370.362549,286.819153 
	C362.914398,265.665283 355.425781,244.525665 347.967407,223.375381 
	C341.065796,203.803940 334.198547,184.220383 327.294006,164.649979 
	C320.173889,144.468552 312.977783,124.313766 305.918915,104.111000 
	C303.465851,97.090309 301.323700,89.961006 299.039581,82.881302 
	C302.476227,84.877457 305.912903,86.873619 309.674988,89.017975 
z"/>
<path fill="#F0ACFF" opacity="1.000000" stroke="none" 
	d="
M351.039551,112.882355 
	C362.596954,119.577003 374.087860,126.391342 385.759491,132.880508 
	C388.607666,134.464020 389.042450,136.438263 389.035492,139.244766 
	C388.971008,165.186935 388.989624,191.129318 388.578979,217.453827 
	C386.847809,215.588303 385.115509,213.484863 384.258148,211.070709 
	C375.232849,185.657501 366.265350,160.222900 357.475555,134.727448 
	C355.003937,127.558243 353.167419,120.170074 351.039551,112.882355 
z"/>
<path fill="#9A45FF" opacity="1.000000" stroke="none" 
	d="
M221.165955,237.997375 
	C220.535324,235.926071 219.904709,233.854767 219.124695,231.038971 
	C218.798721,229.156067 218.795303,227.956802 218.419922,226.888199 
	C211.227341,206.413330 203.921814,185.977829 196.810364,165.474991 
	C194.926666,160.044144 193.612473,154.415756 192.036789,148.878082 
	C195.944778,151.000107 199.852753,153.122131 203.936432,155.942627 
	C204.454117,157.752075 204.755737,158.877365 205.143982,159.971939 
	C219.965302,201.756561 234.781403,243.543030 249.631897,285.317261 
	C253.399368,295.915100 257.279602,306.472809 261.108032,317.048950 
	C258.323395,318.700409 255.538727,320.351868 252.376160,321.666321 
	C250.522171,316.942139 249.086914,312.540802 247.563065,308.170349 
	C240.257111,287.216919 232.985947,266.250854 225.531891,245.350098 
	C224.592209,242.715286 222.645889,240.439499 221.165955,237.997375 
z"/>
<path fill="#EB94FF" opacity="1.000000" stroke="none" 
	d="
M298.891479,82.561005 
	C301.323700,89.961006 303.465851,97.090309 305.918915,104.111000 
	C312.977783,124.313766 320.173889,144.468552 327.294006,164.649979 
	C334.198547,184.220383 341.065796,203.803940 347.967407,223.375381 
	C355.425781,244.525665 362.914398,265.665283 370.362549,286.819153 
	C371.243622,289.321625 371.952759,291.884644 372.893860,294.765137 
	C371.256836,296.355591 369.467529,297.600433 367.303772,298.606934 
	C364.712250,292.114624 362.502655,285.858002 360.276825,279.607147 
	C345.172516,237.188583 330.042114,194.779327 314.968536,152.349854 
	C308.299652,133.578064 301.655548,114.796364 295.187988,95.954704 
	C293.157166,90.038406 291.738342,83.912041 290.039368,77.881828 
	C292.940704,79.334793 295.842010,80.787750 298.891479,82.561005 
z"/>
<path fill="#A853FF" opacity="1.000000" stroke="none" 
	d="
M278.833801,297.997345 
	C278.303131,302.724579 279.804749,308.266388 273.299286,310.442383 
	C265.087341,288.076538 257.287384,266.035919 249.498413,243.991425 
	C243.364136,226.630112 237.174393,209.287949 231.146729,191.889648 
	C228.278305,183.610245 225.730026,175.219910 223.036728,166.879822 
	C226.600922,168.670944 230.165115,170.462067 233.876373,172.976532 
	C234.455109,175.628494 234.692444,177.626266 235.349869,179.474609 
	C239.795197,191.972595 244.407135,204.411575 248.818604,216.921326 
	C257.911346,242.705872 266.890381,268.530548 276.011749,294.304932 
	C276.503571,295.694580 277.872955,296.773682 278.833801,297.997345 
z"/>
<path fill="#EFA7FF" opacity="1.000000" stroke="none" 
	d="
M350.889679,112.558899 
	C353.167419,120.170074 355.003937,127.558243 357.475555,134.727448 
	C366.265350,160.222900 375.232849,185.657501 384.258148,211.070709 
	C385.115509,213.484863 386.847809,215.588303 388.503784,217.916992 
	C388.883881,226.356079 388.934113,234.714157 388.563477,243.472000 
	C387.369904,242.881622 386.299469,242.004150 385.874939,240.882263 
	C383.819244,235.449905 381.936401,229.952103 379.993469,224.477081 
	C374.438538,208.823837 368.839325,193.186142 363.341949,177.512711 
	C357.627197,161.219498 351.960205,144.909103 346.374847,128.571152 
	C343.803894,121.050743 341.477448,113.446739 339.040131,105.880638 
	C342.940002,107.998909 346.839905,110.117172 350.889679,112.558899 
z"/>
<path fill="#A04BFF" opacity="1.000000" stroke="none" 
	d="
M261.458099,317.021820 
	C257.279602,306.472809 253.399368,295.915100 249.631897,285.317261 
	C234.781403,243.543030 219.965302,201.756561 205.143982,159.971939 
	C204.755737,158.877365 204.454117,157.752075 204.076492,156.262863 
	C207.145126,157.543533 210.249359,159.202454 213.678986,161.401794 
	C214.103210,162.764847 214.055527,163.638687 214.322342,164.402664 
	C220.889847,183.208206 227.462479,202.012085 234.092026,220.795853 
	C245.040161,251.815765 256.028900,282.821350 267.000549,313.832977 
	C265.269745,314.886871 263.538971,315.940796 261.458099,317.021820 
z"/>
<path fill="#E790FF" opacity="1.000000" stroke="none" 
	d="
M289.906097,77.559586 
	C291.738342,83.912041 293.157166,90.038406 295.187988,95.954704 
	C301.655548,114.796364 308.299652,133.578064 314.968536,152.349854 
	C330.042114,194.779327 345.172516,237.188583 360.276825,279.607147 
	C362.502655,285.858002 364.712250,292.114624 366.983765,298.742126 
	C365.931427,299.745758 364.824677,300.375854 363.379944,301.061523 
	C353.281891,273.905029 343.464935,246.713104 333.779907,219.474258 
	C326.269897,198.352554 318.956055,177.161163 311.498291,156.020752 
	C302.157440,129.542343 292.756500,103.085129 283.397552,76.613075 
	C283.180054,75.997803 283.154022,75.314842 283.040314,74.272919 
	C285.285583,75.000702 287.529175,76.119019 289.906097,77.559586 
z"/>
<path fill="#EFA3FF" opacity="1.000000" stroke="none" 
	d="
M338.891113,105.558189 
	C341.477448,113.446739 343.803894,121.050743 346.374847,128.571152 
	C351.960205,144.909103 357.627197,161.219498 363.341949,177.512711 
	C368.839325,193.186142 374.438538,208.823837 379.993469,224.477081 
	C381.936401,229.952103 383.819244,235.449905 385.874939,240.882263 
	C386.299469,242.004150 387.369904,242.881622 388.488098,243.935181 
	C388.883759,250.356628 388.933960,256.714661 388.578522,263.446960 
	C386.087738,258.824738 383.865356,253.880295 381.946106,248.820862 
	C377.944000,238.270813 373.958496,227.710281 370.231384,217.061218 
	C365.738953,204.225433 361.623199,191.258087 357.164154,178.410248 
	C348.187256,152.545197 339.088287,126.722519 330.039673,100.882370 
	C332.940491,102.333488 335.841278,103.784615 338.891113,105.558189 
z"/>
<path fill="#A34EFF" opacity="1.000000" stroke="none" 
	d="
M267.344849,313.808044 
	C256.028900,282.821350 245.040161,251.815765 234.092026,220.795853 
	C227.462479,202.012085 220.889847,183.208206 214.322342,164.402664 
	C214.055527,163.638687 214.103210,162.764847 214.002625,161.554611 
	C216.920868,162.858734 219.840881,164.550430 222.898804,166.560974 
	C225.730026,175.219910 228.278305,183.610245 231.146729,191.889648 
	C237.174393,209.287949 243.364136,226.630112 249.498413,243.991425 
	C257.287384,266.035919 265.087341,288.076538 272.941772,310.477051 
	C271.230347,311.817871 269.459747,312.800507 267.344849,313.808044 
z"/>
<path fill="#AE59FF" opacity="1.000000" stroke="none" 
	d="
M278.905762,297.533752 
	C277.872955,296.773682 276.503571,295.694580 276.011749,294.304932 
	C266.890381,268.530548 257.911346,242.705872 248.818604,216.921326 
	C244.407135,204.411575 239.795197,191.972595 235.349869,179.474609 
	C234.692444,177.626266 234.455109,175.628494 234.032318,173.291885 
	C237.937759,175.006851 241.834305,177.129791 245.875641,179.985687 
	C247.745239,186.205505 249.339111,191.737640 251.217789,197.171295 
	C258.843048,219.225754 266.492462,241.272552 274.324585,263.253906 
	C275.204559,265.723602 277.301025,267.759918 278.833344,269.997192 
	C278.881500,279.021515 278.929626,288.045837 278.905762,297.533752 
z"/>
<path fill="#7B26FF" opacity="1.000000" stroke="none" 
	d="
M128.149902,178.871490 
	C138.848602,172.324402 149.547287,165.777313 160.839417,159.330841 
	C164.949707,169.105423 168.657669,178.715622 171.913452,188.476639 
	C173.946671,194.572372 175.297852,200.895584 176.955093,207.116714 
	C165.218719,200.404861 153.482361,193.693008 141.369446,186.943024 
	C140.992905,186.904892 141.061813,186.947754 140.953598,186.660645 
	C140.264069,186.281265 139.682755,186.189011 138.752930,186.018921 
	C134.986252,183.584534 131.568069,181.228012 128.149902,178.871490 
z"/>
<path fill="#EEA0FF" opacity="1.000000" stroke="none" 
	d="
M329.900879,100.569008 
	C339.088287,126.722519 348.187256,152.545197 357.164154,178.410248 
	C361.623199,191.258087 365.738953,204.225433 370.231384,217.061218 
	C373.958496,227.710281 377.944000,238.270813 381.946106,248.820862 
	C383.865356,253.880295 386.087738,258.824738 388.503052,263.909851 
	C388.883667,269.024384 388.934052,274.050232 388.909424,279.537659 
	C387.826172,278.613922 386.414673,277.370453 385.870087,275.822083 
	C377.397736,251.733109 369.135223,227.570129 360.619995,203.496506 
	C353.989777,184.752014 346.994629,166.136856 340.316040,147.409164 
	C334.865234,132.124283 329.627197,116.763344 324.353027,101.416130 
	C323.987457,100.352356 324.106720,99.121979 324.000458,97.567261 
	C325.920959,98.195518 327.841492,99.225586 329.900879,100.569008 
z"/>
<path fill="#D37DFF" opacity="1.000000" stroke="none" 
	d="
M246.958359,64.887955 
	C249.033493,63.592243 251.108627,62.296532 253.819153,61.192596 
	C258.149139,70.964165 262.006409,80.485054 265.501434,90.137100 
	C271.199127,105.872238 276.825165,121.637604 282.156128,137.499542 
	C285.099365,146.256973 287.380310,155.237015 289.959839,164.116699 
	C286.062958,161.994553 282.166046,159.872406 278.124451,157.013809 
	C276.348755,150.913528 274.882202,145.493088 273.058716,140.195511 
	C264.411926,115.074631 255.667816,89.987259 246.958359,64.887955 
z"/>
<path fill="#1C0F3A" opacity="1.000000" stroke="none" 
	d="
M846.963013,155.653564 
	C844.477417,162.592773 840.022278,166.528351 832.879150,166.988663 
	C825.472412,167.465942 818.350464,166.822189 813.957642,159.753342 
	C809.529968,152.628387 811.165466,143.312576 817.380493,138.154480 
	C824.159973,132.527863 835.199707,132.598267 841.849792,138.383850 
	C847.055054,142.912552 849.475281,148.358948 846.963013,155.653564 
z"/>
<path fill="#320C7A" opacity="1.000000" stroke="none" 
	d="
M128.126419,179.348358 
	C131.568069,181.228012 134.986252,183.584534 138.883636,186.307404 
	C139.929184,186.765076 140.495499,186.856415 141.061813,186.947754 
	C141.061813,186.947754 140.992905,186.904892 141.012177,186.869354 
	C143.245804,189.286743 145.194992,192.062256 147.719788,194.137466 
	C159.447891,203.777100 171.284668,213.287094 183.201599,222.692657 
	C186.189621,225.050964 186.189484,227.984787 185.504547,231.599304 
	C183.441772,231.705582 181.636230,231.765106 180.259857,231.025726 
	C173.543671,227.417908 167.005783,223.477814 160.285324,219.878342 
	C149.628876,214.170761 138.877457,208.640457 128.166229,203.035156 
	C128.145126,195.298508 128.124039,187.561859 128.126419,179.348358 
z"/>
<path fill="#C36DFF" opacity="1.000000" stroke="none" 
	d="
M229.956253,74.885666 
	C233.049042,72.919823 236.141815,70.953979 239.616486,69.332550 
	C242.851166,78.167282 245.650238,86.676117 248.567734,95.144142 
	C254.999649,113.812737 261.491272,132.460739 267.958527,151.117157 
	C262.856110,148.122635 257.753662,145.128113 252.326340,141.579010 
	C251.530960,138.761765 251.298767,136.417145 250.552826,134.249268 
	C243.738174,114.443893 236.834167,94.669273 229.956253,74.885666 
z"/>
<path fill="#933EFF" opacity="1.000000" stroke="none" 
	d="
M191.875946,148.563065 
	C193.612473,154.415756 194.926666,160.044144 196.810364,165.474991 
	C203.921814,185.977829 211.227341,206.413330 218.419922,226.888199 
	C218.795303,227.956802 218.798721,229.156067 218.965942,230.704468 
	C214.852707,228.789627 210.748825,226.464798 206.320831,223.594757 
	C205.728180,221.759079 205.604202,220.417633 205.169724,219.185684 
	C196.785629,195.412735 188.365173,171.652603 179.952209,147.889832 
	C184.044998,142.366455 187.855438,146.115509 191.875946,148.563065 
z"/>
<path fill="#933EFF" opacity="1.000000" stroke="none" 
	d="
M221.091888,238.461014 
	C222.645889,240.439499 224.592209,242.715286 225.531891,245.350098 
	C232.985947,266.250854 240.257111,287.216919 247.563065,308.170349 
	C249.086914,312.540802 250.522171,316.942139 252.017593,321.726013 
	C249.278488,323.749298 246.520065,325.375854 243.252625,326.713684 
	C238.331070,313.955292 233.993164,301.458527 229.478012,289.026184 
	C226.779480,281.595764 223.803223,274.266266 220.951813,266.891388 
	C220.973816,257.569153 220.995819,248.246902 221.091888,238.461014 
z"/>
<path fill="#D882FF" opacity="1.000000" stroke="none" 
	d="
M290.112091,164.434174 
	C287.380310,155.237015 285.099365,146.256973 282.156128,137.499542 
	C276.825165,121.637604 271.199127,105.872238 265.501434,90.137100 
	C262.006409,80.485054 258.149139,70.964165 254.174042,61.167946 
	C257.761322,56.929901 260.645477,60.488628 263.902405,62.952232 
	C267.338684,73.206909 270.595306,82.756767 273.945282,92.273773 
	C281.861267,114.762436 289.869019,137.218979 297.711182,159.733261 
	C298.839661,162.972961 299.256989,166.460342 300.003387,169.833115 
	C296.757050,168.139297 293.510681,166.445465 290.112091,164.434174 
z"/>
<path fill="#8833FF" opacity="1.000000" stroke="none" 
	d="
M177.119751,207.426361 
	C175.297852,200.895584 173.946671,194.572372 171.913452,188.476639 
	C168.657669,178.715622 164.949707,169.105423 161.160538,159.191345 
	C164.554230,156.654755 168.220261,154.358292 172.366821,152.509918 
	C177.061523,164.653366 181.415192,176.300888 185.446915,188.058807 
	C188.827225,197.917023 191.831848,207.904068 195.002823,217.834061 
	C189.096680,214.468048 183.190552,211.102020 177.119751,207.426361 
z"/>
<path fill="#DD87FF" opacity="1.000000" stroke="none" 
	d="
M315.090485,193.460602 
	C316.589478,195.314438 318.479645,197.466492 319.364227,199.973358 
	C331.632721,234.741547 343.763245,269.558380 355.983093,304.740601 
	C354.622223,306.077911 353.205719,307.037964 351.164368,307.801697 
	C350.069031,306.731232 349.473541,305.901337 349.146210,304.976562 
	C339.170624,276.793030 329.259796,248.586426 319.197418,220.433990 
	C318.365173,218.105545 316.533966,216.134140 315.166931,213.996857 
	C315.115967,207.305832 315.065033,200.614822 315.090485,193.460602 
z"/>
<path fill="#CD77FF" opacity="1.000000" stroke="none" 
	d="
M268.113556,151.432739 
	C261.491272,132.460739 254.999649,113.812737 248.567734,95.144142 
	C245.650238,86.676117 242.851166,78.167282 239.977814,69.279617 
	C242.053635,67.585732 244.150040,66.289177 246.602386,64.940292 
	C255.667816,89.987259 264.411926,115.074631 273.058716,140.195511 
	C274.882202,145.493088 276.348755,150.913528 277.969055,156.694260 
	C274.728424,155.323547 271.498505,153.535919 268.113556,151.432739 
z"/>
<path fill="#3C0E90" opacity="1.000000" stroke="none" 
	d="
M128.116882,203.493790 
	C138.877457,208.640457 149.628876,214.170761 160.285324,219.878342 
	C167.005783,223.477814 173.543671,227.417908 180.259857,231.025726 
	C181.636230,231.765106 183.441772,231.705582 185.440186,232.022934 
	C185.876373,236.386475 185.921844,240.741379 185.537262,245.540741 
	C176.207581,241.300491 167.308594,236.614548 158.408157,231.931381 
	C148.327393,226.627182 138.245331,221.325470 128.163849,216.022644 
	C128.131760,211.999237 128.099655,207.975830 128.116882,203.493790 
z"/>
<path fill="#430FA0" opacity="1.000000" stroke="none" 
	d="
M128.109467,216.483215 
	C138.245331,221.325470 148.327393,226.627182 158.408157,231.931381 
	C167.308594,236.614548 176.207581,241.300491 185.471085,246.002258 
	C187.439987,252.223053 183.939880,255.149368 178.250214,256.749176 
	C167.711914,250.772827 157.792603,244.891098 147.660660,239.401871 
	C141.325836,235.969803 134.670593,233.129120 128.159134,230.023087 
	C128.124451,225.663315 128.089767,221.303543 128.109467,216.483215 
z"/>
<path fill="#D37DFF" opacity="1.000000" stroke="none" 
	d="
M344.044434,312.112488 
	C341.595917,313.670654 339.147400,315.228851 336.290283,316.448120 
	C330.271790,299.966187 324.754700,283.789703 318.963501,267.712006 
	C317.959869,264.925659 315.796265,262.557159 314.168427,259.995667 
	C314.117157,251.638641 314.065887,243.281616 314.431396,234.522797 
	C316.080658,235.811371 317.743683,237.337296 318.463867,239.223251 
	C320.535004,244.647156 322.148529,250.243530 324.078674,255.723953 
	C330.702332,274.531250 337.384521,293.317963 344.044434,312.112488 
z"/>
<path fill="#D882FF" opacity="1.000000" stroke="none" 
	d="
M344.400146,312.058197 
	C337.384521,293.317963 330.702332,274.531250 324.078674,255.723953 
	C322.148529,250.243530 320.535004,244.647156 318.463867,239.223251 
	C317.743683,237.337296 316.080658,235.811371 314.507263,234.059479 
	C314.448853,227.637024 314.731445,221.276123 315.090485,214.456024 
	C316.533966,216.134140 318.365173,218.105545 319.197418,220.433990 
	C329.259796,248.586426 339.170624,276.793030 349.146210,304.976562 
	C349.473541,305.901337 350.069031,306.731232 350.822937,307.828156 
	C348.989563,309.368591 346.872742,310.686249 344.400146,312.058197 
z"/>
<path fill="#B35EFF" opacity="1.000000" stroke="none" 
	d="
M278.905396,269.533661 
	C277.301025,267.759918 275.204559,265.723602 274.324585,263.253906 
	C266.492462,241.272552 258.843048,219.225754 251.217789,197.171295 
	C249.339111,191.737640 247.745239,186.205505 246.030701,180.301544 
	C249.283234,181.671249 252.525513,183.458069 255.895889,185.971741 
	C256.036682,187.198181 255.922150,187.742645 256.080322,188.190857 
	C262.713593,206.987747 269.344421,225.785675 276.099396,244.538864 
	C276.464752,245.553284 277.895630,246.183899 278.830536,246.993164 
	C278.879486,254.352158 278.928467,261.711151 278.905396,269.533661 
z"/>
<path fill="#DD87FF" opacity="1.000000" stroke="none" 
	d="
M300.324097,169.978516 
	C299.256989,166.460342 298.839661,162.972961 297.711182,159.733261 
	C289.869019,137.218979 281.861267,114.762436 273.945282,92.273773 
	C270.595306,82.756767 267.338684,73.206909 264.040283,63.278294 
	C266.479034,64.213501 268.917145,65.542389 271.678406,67.019661 
	C273.738892,73.189285 275.222046,79.298103 277.261108,85.215324 
	C283.368347,102.937851 289.684998,120.588287 295.935822,138.261230 
	C299.475555,148.269028 303.076019,158.255463 306.576843,168.276764 
	C307.227203,170.138519 307.532959,172.120651 308.001038,174.439301 
	C305.551147,173.262238 303.097992,171.693085 300.324097,169.978516 
z"/>
<path fill="#BD67FF" opacity="1.000000" stroke="none" 
	d="
M278.902100,246.529877 
	C277.895630,246.183899 276.464752,245.553284 276.099396,244.538864 
	C269.344421,225.785675 262.713593,206.987747 256.080322,188.190857 
	C255.922150,187.742645 256.036682,187.198181 256.032288,186.294067 
	C263.396729,189.944427 270.802216,193.915497 278.040070,198.171524 
	C278.849213,198.647308 278.962402,200.739624 278.967133,202.083801 
	C279.018799,216.744553 278.984528,231.405609 278.902100,246.529877 
z"/>
<path fill="#B35EFF" opacity="1.000000" stroke="none" 
	d="
M210.889191,85.954575 
	C214.668564,83.632202 218.447937,81.309830 222.648529,79.313980 
	C226.974564,90.682350 230.982040,101.689308 234.748703,112.778069 
	C237.339600,120.405495 239.596481,128.146378 242.002640,135.836563 
	C236.887497,132.937500 231.772369,130.038422 226.327148,126.594940 
	C222.959335,116.949715 220.083282,107.790306 216.814651,98.773201 
	C215.216232,94.363754 212.887405,90.219086 210.889191,85.954575 
z"/>
<path fill="#8E39FF" opacity="1.000000" stroke="none" 
	d="
M195.327530,217.988098 
	C191.831848,207.904068 188.827225,197.917023 185.446915,188.058807 
	C181.415192,176.300888 177.061523,164.653366 172.755005,152.529419 
	C174.858047,150.731323 177.053421,149.361801 179.600494,147.941055 
	C188.365173,171.652603 196.785629,195.412735 205.169724,219.185684 
	C205.604202,220.417633 205.728180,221.759079 205.999878,223.441589 
	C202.552765,221.936493 199.102509,220.039322 195.327530,217.988098 
z"/>
<path fill="#5613CB" opacity="1.000000" stroke="none" 
	d="
M168.098099,263.037262 
	C162.633102,266.299896 157.168106,269.562531 151.218185,272.664795 
	C143.206024,268.675171 135.678772,264.845856 128.151520,261.016541 
	C128.120911,254.994858 128.090286,248.973175 128.481705,242.494202 
	C141.968536,249.037018 155.033325,256.037140 168.098099,263.037262 
z"/>
<path fill="#4C11B5" opacity="1.000000" stroke="none" 
	d="
M168.451202,263.009613 
	C155.033325,256.037140 141.968536,249.037018 128.539062,242.030640 
	C128.133499,238.328476 128.092621,234.632568 128.105438,230.479874 
	C134.670593,233.129120 141.325836,235.969803 147.660660,239.401871 
	C157.792603,244.891098 167.711914,250.772827 177.889771,256.796204 
	C174.973724,259.063171 171.889008,261.022552 168.451202,263.009613 
z"/>
<path fill="#BD67FF" opacity="1.000000" stroke="none" 
	d="
M242.324646,135.984436 
	C239.596481,128.146378 237.339600,120.405495 234.748703,112.778069 
	C230.982040,101.689308 226.974564,90.682350 223.012421,79.260765 
	C225.051834,77.584251 227.148590,76.287483 229.600800,74.938187 
	C236.834167,94.669273 243.738174,114.443893 250.552826,134.249268 
	C251.298767,136.417145 251.530960,138.761765 252.002808,141.428772 
	C248.885010,139.932846 245.765823,138.032578 242.324646,135.984436 
z"/>
<path fill="#8E39FF" opacity="1.000000" stroke="none" 
	d="
M220.582672,267.129700 
	C223.803223,274.266266 226.779480,281.595764 229.478012,289.026184 
	C233.993164,301.458527 238.331070,313.955292 242.894470,326.767822 
	C240.728958,328.386353 238.412582,329.661957 235.636047,330.474426 
	C231.394409,318.885986 227.683960,307.735657 223.774323,296.655609 
	C222.944839,294.304779 221.388412,292.210419 220.166916,289.997894 
	C220.182449,282.454590 220.197983,274.911285 220.582672,267.129700 
z"/>
<path fill="#CD77FF" opacity="1.000000" stroke="none" 
	d="
M314.092072,260.459106 
	C315.796265,262.557159 317.959869,264.925659 318.963501,267.712006 
	C324.754700,283.789703 330.271790,299.966187 335.942535,316.470306 
	C333.900391,318.150940 331.797394,319.470459 329.284973,320.444153 
	C325.434906,309.803284 322.117035,299.464264 318.459656,289.246796 
	C317.635956,286.945709 315.627930,285.068542 314.165070,282.996246 
	C314.115265,275.638336 314.065491,268.280457 314.092072,260.459106 
z"/>
<path fill="#8833FF" opacity="1.000000" stroke="none" 
	d="
M220.093628,290.461639 
	C221.388412,292.210419 222.944839,294.304779 223.774323,296.655609 
	C227.683960,307.735657 231.394409,318.885986 235.247269,330.459290 
	C230.571854,333.770752 225.825089,336.634216 220.020340,340.135864 
	C220.020340,322.852966 220.020340,306.889191 220.093628,290.461639 
z"/>
<path fill="#C36DFF" opacity="1.000000" stroke="none" 
	d="
M314.088348,283.459534 
	C315.627930,285.068542 317.635956,286.945709 318.459656,289.246796 
	C322.117035,299.464264 325.434906,309.803284 328.939117,320.466705 
	C324.329681,323.625153 319.656677,326.415192 314.011627,329.785583 
	C314.011627,313.864258 314.011627,298.893555 314.088348,283.459534 
z"/>
<path fill="#AE59FF" opacity="1.000000" stroke="none" 
	d="
M210.536743,85.978226 
	C212.887405,90.219086 215.216232,94.363754 216.814651,98.773201 
	C220.083282,107.790306 222.959335,116.949715 226.000366,126.442093 
	C222.221130,124.602219 218.438614,122.370773 214.326843,119.599274 
	C210.500504,109.427567 207.003403,99.795929 203.506287,90.164291 
	C205.732315,88.776817 207.958313,87.389343 210.536743,85.978226 
z"/>
<path fill="#5F15E0" opacity="1.000000" stroke="none" 
	d="
M128.092529,261.479309 
	C135.678772,264.845856 143.206024,268.675171 150.898956,272.814331 
	C146.630035,275.676697 142.195450,278.229248 137.126678,280.758057 
	C133.717056,279.505737 130.941620,278.277161 128.166183,277.048584 
	C128.121979,272.013092 128.077774,266.977570 128.092529,261.479309 
z"/>
<path fill="#A853FF" opacity="1.000000" stroke="none" 
	d="
M203.130295,90.117630 
	C207.003403,99.795929 210.500504,109.427567 214.000549,119.446289 
	C209.416183,117.139793 204.828873,114.446213 200.109406,111.028076 
	C198.303589,105.164368 196.629944,100.025208 194.956314,94.886047 
	C197.555649,93.281021 200.154984,91.675995 203.130295,90.117630 
z"/>
<path fill="#A34EFF" opacity="1.000000" stroke="none" 
	d="
M194.629456,95.032349 
	C196.629944,100.025208 198.303589,105.164368 199.967957,110.708115 
	C194.617615,108.215652 189.276535,105.318596 182.931183,101.876816 
	C187.221649,99.349586 190.762115,97.264122 194.629456,95.032349 
z"/>
<path fill="#7B26FF" opacity="1.000000" stroke="none" 
	d="
M128.110931,277.487854 
	C130.941620,278.277161 133.717056,279.505737 136.804443,280.894104 
	C134.318420,282.762421 131.520432,284.470856 128.055679,286.586456 
	C128.055679,283.100555 128.055679,280.513855 128.110931,277.487854 
z"/>
<path fill="none" opacity="1.000000" stroke="none" 
	d="
M1021.337463,264.373840 
	C1014.964600,265.024017 1009.037476,264.465637 1005.285767,259.277771 
	C999.448303,251.205750 1004.883240,241.099655 1015.843018,240.203979 
	C1024.572510,239.490555 1033.406738,240.060074 1042.204468,240.060074 
	C1041.682739,252.944336 1033.245117,262.732605 1021.337463,264.373840 
z"/>
<path fill="none" opacity="1.000000" stroke="none" 
	d="
M646.000000,219.998962 
	C638.363403,219.998962 631.226685,219.998962 624.113098,219.998962 
	C623.564819,209.363785 635.276123,199.482407 647.275757,198.871765 
	C660.684204,198.189423 671.369019,207.809357 671.633057,219.998962 
	C663.266602,219.998962 654.883301,219.998962 646.000000,219.998962 
z"/>
<path fill="none" opacity="1.000000" stroke="none" 
	d="
M140.953598,186.660629 
	C140.495499,186.856415 139.929184,186.765076 139.232147,186.385254 
	C139.682755,186.189011 140.264069,186.281265 140.953598,186.660629 
z"/>
</svg>