<svg fill="none" height="33" viewBox="0 0 67 33" width="67" xmlns="http://www.w3.org/2000/svg" xmlns:xlink="http://www.w3.org/1999/xlink"><linearGradient id="a" gradientUnits="userSpaceOnUse" x1="8.70544" x2="44.7872" y1="25.4264" y2="25.4264"><stop offset="0" stop-color="#70a443"/><stop offset=".616686" stop-color="#bcd64a"/></linearGradient><linearGradient id="b" gradientUnits="userSpaceOnUse" x1="0" x2="66.4095" y1="18.1904" y2="18.1904"><stop offset=".383314" stop-color="#bcd64a"/><stop offset="1" stop-color="#70a443"/></linearGradient><clipPath id="c"><path d="m0 0h67v33h-67z"/></clipPath><g clip-path="url(#c)" clip-rule="evenodd" fill-rule="evenodd"><path d="m14.1183 18.0166c18.0422 17.6871 30.4945-1.825 30.6689-1.9703-10.1858 5.4788-21.7869 6.5385-36.08176-4.7359 1.86166 2.6451 3.63636 4.7185 5.41286 6.7062z" fill="url(#a)"/><path d="m46.1795 5.11688c-12.1602 4.7685-27.0707 9.53812-46.1795-2.26364 6.79498 5.70536 28.0268 27.06886 52.1041 6.74829 4.8136-4.05941 8.9726-7.1853 14.3054-9.322713-.9178-.191301-1.854-.27881691-2.8094-.27881691-5.1645-.000561-10.8965 2.55815991-17.4206 5.11687991z" fill="url(#b)"/></g></svg>