<?xml version="1.0" encoding="UTF-8"?>
<svg version="1.1" xmlns="http://www.w3.org/2000/svg" width="1200" height="1200">
<path d="M0 0 C0.78463623 0.45028564 1.56927246 0.90057129 2.37768555 1.36450195 C3.27527588 1.8754541 4.17286621 2.38640625 5.09765625 2.9128418 C6.06018311 3.47052246 7.02270996 4.02820313 8.0144043 4.6027832 C9.02913818 5.18366699 10.04387207 5.76455078 11.08935547 6.36303711 C20.26697154 11.62896338 29.40261291 16.96803549 38.53393555 22.3137207 C44.90755561 26.04159112 51.30320892 29.7306666 57.7019043 33.4152832 C71.05217673 41.10625496 84.35923712 48.87011371 97.66088867 56.64477539 C100.63255934 58.38135156 103.6046073 60.11727929 106.5769043 61.8527832 C107.55900879 62.42633545 108.54111328 62.9998877 109.55297852 63.59082031 C115.89814106 67.29207908 122.25834895 70.96632126 128.62646484 74.62792969 C137.87943596 79.94901645 147.10896552 85.30268585 156.2644043 90.7902832 C157.10970703 91.29640137 157.95500977 91.80251953 158.82592773 92.32397461 C164.57210377 95.78548268 164.57210377 95.78548268 165.7019043 96.9152832 C165.79965904 99.45724509 165.83185707 101.97201282 165.82215881 104.51441956 C165.82344045 105.72239092 165.82344045 105.72239092 165.82474798 106.95476574 C165.82640524 109.67413023 165.82087741 112.39343409 165.81542969 115.11279297 C165.81514784 117.05380248 165.8153055 118.99481209 165.81587219 120.93582153 C165.81616027 126.22279304 165.81026185 131.50974208 165.80329823 136.79670835 C165.79706644 142.31539373 165.79646104 147.83407958 165.79527283 153.35276794 C165.79215899 163.81107478 165.78394491 174.26937122 165.77392334 184.72767347 C165.76276381 196.63073361 165.75725216 208.53379423 165.7522279 220.4368583 C165.74176234 244.92967237 165.7241619 269.42247721 165.7019043 293.9152832 C164.94650864 294.33334732 164.19111298 294.75141144 163.41282654 295.18214417 C160.5486673 296.76806483 157.68514158 298.35511848 154.82200623 299.94288635 C153.59428299 300.62343979 152.36632523 301.30357035 151.1381073 301.98323059 C140.96855217 307.61136091 130.91235464 313.4163413 120.8894043 319.30200195 C113.45087545 323.66081606 105.95866482 327.92471076 98.46566772 332.18893433 C90.42507306 336.76546751 82.4125339 341.38335384 74.49707031 346.17407227 C69.91579455 348.9152832 69.91579455 348.9152832 67.7019043 348.9152832 C67.7019043 284.2352832 67.7019043 219.5552832 67.7019043 152.9152832 C58.4619043 147.6352832 49.2219043 142.3552832 39.7019043 136.9152832 C33.35411416 133.1791553 27.01137593 129.4370729 20.67797852 125.67700195 C14.90474672 122.25947606 9.1154138 118.8693428 3.3269043 115.4777832 C2.70840607 115.11532501 2.08990784 114.75286682 1.45266724 114.37942505 C-7.75787896 108.98231441 -16.97661863 103.59935452 -26.19995117 98.22412109 C-35.30471237 92.91615865 -44.39595683 87.58526517 -53.4855957 82.25146484 C-60.38710832 78.20253836 -67.29671768 74.16800529 -74.21411133 70.14624023 C-83.3171799 64.85245131 -92.38334899 59.52182313 -101.2980957 53.9152832 C-98.63669439 51.0756969 -96.12551005 49.0467676 -92.7199707 47.1730957 C-91.36850952 46.42104858 -91.36850952 46.42104858 -89.98974609 45.65380859 C-89.01900146 45.12134521 -88.04825684 44.58888184 -87.0480957 44.0402832 C-84.957438 42.87637949 -82.86761971 41.71096692 -80.77856445 40.54418945 C-79.70396973 39.94493652 -78.629375 39.34568359 -77.5222168 38.72827148 C-72.43530678 35.86779944 -67.39639338 32.92705507 -62.3605957 29.9777832 C-61.37196533 29.39939697 -60.38333496 28.82101074 -59.36474609 28.22509766 C-57.35494502 27.04873601 -55.34542393 25.87189589 -53.33618164 24.69458008 C-50.26501395 22.89590842 -47.19209724 21.10026753 -44.1184082 19.3059082 C-43.10166016 18.71229492 -42.08491211 18.11868164 -41.03735352 17.50708008 C-39.02211772 16.332117 -37.00586013 15.15890449 -34.98852539 13.98754883 C-30.21615346 11.21486239 -25.46212655 8.41910201 -20.7434082 5.5559082 C-19.44077026 4.77509888 -19.44077026 4.77509888 -18.11181641 3.97851562 C-16.49120575 3.00614923 -14.87724084 2.02258423 -13.27148438 1.02587891 C-12.55452393 0.59879639 -11.83756348 0.17171387 -11.09887695 -0.26831055 C-10.48181885 -0.64528076 -9.86476074 -1.02225098 -9.22900391 -1.41064453 C-5.81525 -2.60237225 -3.16496814 -1.49388648 0 0 Z " fill="#DE8CFF" transform="translate(604.298095703125,282.084716796875)"/>
<path d="M0 0 C2.80222882 1.47999394 5.57945244 2.97639032 8.328125 4.55444336 C9.45154297 5.19768555 10.57496094 5.84092773 11.73242188 6.50366211 C12.9453787 7.20276602 14.15826759 7.90198779 15.37109375 8.60131836 C16.63465478 9.32677187 17.89832823 10.05202962 19.16210938 10.77709961 C27.95790558 15.82912143 36.72239113 20.93428986 45.47583008 26.05932617 C53.72954997 30.88552111 62.02834717 35.63051562 70.33551025 40.36376953 C79.727949 45.71681526 89.08104863 51.13455876 98.41210938 56.59399414 C105.76673315 60.89592121 113.15025586 65.14267955 120.55859375 69.35131836 C120.55826645 69.96274815 120.55793915 70.57417793 120.55760193 71.20413589 C120.55201684 83.41961821 120.55918534 95.63490412 120.59375 107.8503418 C120.62425591 119.20376975 120.61582421 130.5568443 120.5819397 141.91025925 C120.56262234 148.72692309 120.55889177 155.54298113 120.58935547 162.35961914 C120.61907904 169.02186375 120.60729771 175.68283959 120.5697937 182.3451004 C120.56235889 184.8696902 120.56885092 187.39436142 120.58963013 189.91887665 C120.61621647 193.42723071 120.59337133 196.93197924 120.55859375 200.44018555 C120.57800522 201.47696945 120.59741669 202.51375336 120.61741638 203.58195496 C120.4779582 210.44441877 120.4779582 210.44441877 117.80748844 213.07868195 C115.76932935 214.37164983 113.76946512 215.39030542 111.55859375 216.35131836 C110.65230225 216.86436523 109.74601074 217.37741211 108.81225586 217.90600586 C107.9950708 218.34170898 107.17788574 218.77741211 106.3359375 219.22631836 C105.39709717 219.72993896 104.45825684 220.23355957 103.4909668 220.75244141 C102.50265869 221.2800708 101.51435059 221.8077002 100.49609375 222.35131836 C92.18757474 226.81509084 83.93979103 231.36773616 75.74609375 236.03881836 C68.44892414 240.19224471 61.11274856 244.25079529 53.68359375 248.16381836 C52.8743042 248.59073975 52.06501465 249.01766113 51.23120117 249.45751953 C45.69077584 252.35131836 45.69077584 252.35131836 44.55859375 252.35131836 C44.06359375 183.54631836 44.06359375 183.54631836 43.55859375 113.35131836 C37.61859375 110.05131836 31.67859375 106.75131836 25.55859375 103.35131836 C21.71528029 101.13648579 17.88074661 98.914029 14.05859375 96.66381836 C12.00422174 95.46015473 9.94952252 94.25704943 7.89453125 93.05444336 C6.85393555 92.44536133 5.81333984 91.8362793 4.74121094 91.20874023 C-0.60031727 88.09134635 -5.95790177 85.0019136 -11.31640625 81.91381836 C-12.38584473 81.29740479 -13.4552832 80.68099121 -14.55712891 80.04589844 C-16.7372039 78.78962001 -18.91738037 77.53351764 -21.09765625 76.27758789 C-25.7091805 73.6209782 -30.31992765 70.96302279 -34.93017578 68.30419922 C-37.10805507 67.04818938 -39.28610131 65.79246897 -41.46435547 64.53710938 C-48.46972568 60.49737221 -55.45983453 56.4320416 -62.44140625 52.35131836 C-58.88035797 56.00451946 -55.16623496 59.38737457 -51.25390625 62.66381836 C-50.39853271 63.38384033 -50.39853271 63.38384033 -49.52587891 64.1184082 C-45.3665998 67.6071738 -41.15165754 71.02056976 -36.8984375 74.39428711 C-32.37355744 77.99836487 -27.91347522 81.68208926 -23.44140625 85.35131836 C-21.60830463 86.85160153 -19.77497198 88.35160244 -17.94140625 89.85131836 C-17.09690918 90.56674805 -16.25241211 91.28217773 -15.38232422 92.01928711 C-12.5378201 94.38458917 -12.5378201 94.38458917 -9.5222168 96.07177734 C-5.68780236 98.51770688 -2.16543835 100.79765937 -0.86602783 105.38067627 C-0.06296551 111.21466463 -0.43898707 117.05459316 -0.75390625 122.91381836 C-0.80915667 124.70338115 -0.85933397 126.49310817 -0.90429688 128.28295898 C-1.02480455 132.6431715 -1.21412263 136.9954198 -1.44140625 141.35131836 C-2.01246094 141.67181152 -2.58351563 141.99230469 -3.171875 142.32250977 C-14.24613037 148.54407573 -25.29010502 154.81178567 -36.25390625 161.22631836 C-44.53167276 166.06882208 -52.81375439 170.90337508 -61.11508179 175.7053833 C-62.854072 176.71194382 -64.59171912 177.72082359 -66.3293457 178.72973633 C-67.89881958 179.6368335 -67.89881958 179.6368335 -69.5 180.56225586 C-70.43126709 181.10156738 -71.36253418 181.64087891 -72.32202148 182.1965332 C-74.44140625 183.35131836 -74.44140625 183.35131836 -75.44140625 183.35131836 C-75.81577056 165.27096975 -76.09759709 147.19163125 -76.270401 129.10824013 C-76.35278477 120.71089488 -76.46500811 112.31596209 -76.6484375 103.92016602 C-76.80831115 96.59903307 -76.91122476 89.27964704 -76.94682217 81.95681703 C-76.96762492 78.08102613 -77.01618868 74.21023049 -77.13308716 70.33604813 C-77.81508757 46.83083746 -77.81508757 46.83083746 -73.91842461 41.11881828 C-70.27361209 37.66270715 -66.23885419 35.77746606 -61.53529644 34.15078449 C-58.01119329 32.80525017 -54.93475386 30.75377611 -51.7578125 28.74584961 C-50.48191718 27.98498843 -49.20393489 27.2276065 -47.9230957 26.47509766 C-47.28296539 26.09735199 -46.64283508 25.71960632 -45.98330688 25.33041382 C-44.63766127 24.53733331 -43.29193483 23.74438991 -41.94613647 22.9515686 C-39.84498384 21.71346539 -37.7444883 20.47426081 -35.64453125 19.23413086 C-34.95506912 18.82698349 -34.26560699 18.41983612 -33.55525208 18.00035095 C-28.99543441 15.29790173 -24.48199559 12.52923091 -19.98828125 9.71850586 C-18.83545749 9.00349911 -17.68238793 8.28888851 -16.52905273 7.57470703 C-14.39161449 6.24603782 -12.26300043 4.90303575 -10.14477539 3.54394531 C-8.72346313 2.6654895 -8.72346313 2.6654895 -7.2734375 1.76928711 C-6.04717651 0.99234497 -6.04717651 0.99234497 -4.79614258 0.19970703 C-2.44140625 -0.64868164 -2.44140625 -0.64868164 0 0 Z " fill="#9B46FE" transform="translate(506.44140625,391.648681640625)"/>
<path d="M0 0 C39 0 39 0 48.1328125 8.11328125 C50.09020996 10.92626953 50.09020996 10.92626953 51.26367188 13.45703125 C51.7295874 14.40916504 52.19550293 15.36129883 52.67553711 16.34228516 C53.15385986 17.32245605 53.63218262 18.30262695 54.125 19.3125 C55.25304451 21.32925198 56.39734529 23.33698595 57.55664062 25.3359375 C59.94265313 29.4735578 62.25965018 33.63958997 64.53613281 37.83837891 C69.86939854 47.51576397 76.21971598 56.40940668 82.5 65.5 C97.15489347 87.22966962 111.57649313 109.11605854 126 131 C126.33 87.77 126.66 44.54 127 0 C139.87 0 152.74 0 166 0 C166 65.01 166 130.02 166 197 C127 197 127 197 117.8671875 188.88671875 C115.90979004 186.07373047 115.90979004 186.07373047 114.73632812 183.54296875 C114.2704126 182.59083496 113.80449707 181.63870117 113.32446289 180.65771484 C112.84614014 179.67754395 112.36781738 178.69737305 111.875 177.6875 C110.74695549 175.67074802 109.60265471 173.66301405 108.44335938 171.6640625 C106.05734687 167.5264422 103.74034982 163.36041003 101.46386719 159.16162109 C96.65228556 150.43084889 90.9955461 142.30243169 85.31488037 134.12240601 C82.29248142 129.75519962 79.3267135 125.35003541 76.359375 120.9453125 C75.76708099 120.06777817 75.17478699 119.19024384 74.56454468 118.28611755 C65.90972143 105.44419658 57.41945163 92.49246777 48.92382812 79.54492188 C48.3311615 78.6423465 47.73849487 77.73977112 47.12786865 76.80984497 C46.01556643 75.11536589 44.90438698 73.42014911 43.79449463 71.72409058 C43.3064032 70.98031158 42.81831177 70.23653259 42.31542969 69.47021484 C41.88993835 68.82047699 41.46444702 68.17073914 41.02606201 67.50131226 C40.0813102 66.01970946 40.0813102 66.01970946 39 65 C38.67 108.56 38.34 152.12 38 197 C25.46 197 12.92 197 0 197 C0 131.99 0 66.98 0 0 Z " fill="#1C0F3A" transform="translate(195,723)"/>
<path d="M0 0 C12.54 0 25.08 0 38 0 C38.33 36.63 38.66 73.26 39 111 C48.95462467 99.53338913 48.95462467 99.53338913 58.625 87.875 C62.06682143 83.70858459 65.62652322 79.6475378 69.17895508 75.57543945 C73.31784668 70.81916777 77.3370189 65.9842938 81.29296875 61.07421875 C84.6059282 57.04863187 84.6059282 57.04863187 86.94888306 56.75949097 C87.743862 56.76393219 88.53884094 56.76837341 89.35791016 56.77294922 C90.25869293 56.77310028 91.15947571 56.77325134 92.08755493 56.77340698 C93.06155243 56.78372955 94.03554993 56.79405212 95.0390625 56.8046875 C96.03505463 56.8075174 97.03104675 56.81034729 98.05722046 56.81326294 C101.24660118 56.8244816 104.43570378 56.84958919 107.625 56.875 C109.78385012 56.88502762 111.94270463 56.89415385 114.1015625 56.90234375 C119.40113699 56.92442639 124.70054863 56.95792042 130 57 C129.05263689 58.27606056 128.10347472 59.5507856 127.15356445 60.82495117 C126.62519485 61.53495773 126.09682526 62.24496429 125.55244446 62.97648621 C123.5694537 65.56119005 121.41530716 67.93691127 119.1875 70.3125 C115.8674031 73.90968397 112.68760622 77.5564692 109.625 81.375 C106.23613833 85.57814645 102.68758904 89.56201196 99 93.5 C94.49027391 98.31672289 90.23241682 103.26290197 86.1171875 108.42578125 C83.35439045 111.78497545 80.37253907 114.915118 77.3359375 118.02734375 C75.81732534 119.87030176 75.81732534 119.87030176 76.0078125 121.9375 C77.39031915 124.8113721 79.29944349 126.75666995 81.5 129.0625 C84.98278554 132.77014257 88.31111513 136.53097722 91.5 140.5 C94.55348679 144.28460334 97.70668301 147.92207537 101 151.5 C105.11378909 155.9698512 108.97087297 160.59044893 112.78515625 165.31640625 C114.95632827 167.94708557 117.20241357 170.47942424 119.5 173 C123.48886919 177.37938785 127.25897838 181.90384889 130.98046875 186.51171875 C132.64286841 188.5599752 134.33846702 190.56650689 136.0625 192.5625 C138 195 138 195 138 197 C131.5656769 197.46112978 125.13566 197.7733528 118.68847656 197.98876953 C116.50294007 198.07862581 114.31846576 198.20099017 112.13671875 198.35791016 C94.56939591 199.58858799 94.56939591 199.58858799 88.68371582 195.32019043 C84.53515759 191.16045992 81.45695797 186.43445523 78.48376465 181.39454651 C75.97765905 177.35011372 72.97425806 173.70545098 70 170 C68.8362793 168.50827257 67.67455271 167.01498541 66.515625 165.51953125 C64.13115508 162.45368906 61.74561333 159.38868471 59.359375 156.32421875 C58.75480469 155.54755859 58.15023437 154.77089844 57.52734375 153.97070312 C56.40004057 152.52255211 55.27246875 151.07461014 54.14453125 149.62695312 C49.06875859 143.10539192 44.03899041 136.55068753 39 130 C38.67 152.11 38.34 174.22 38 197 C25.46 197 12.92 197 0 197 C0 131.99 0 66.98 0 0 Z " fill="#1C0F3A" transform="translate(734,723)"/>
<path d="M0 0 C11.21767299 8.64762975 17.3775466 19.74461007 19.82687378 33.6056366 C20.81043563 42.22228396 20.48948388 50.94513985 20.4453125 59.60546875 C20.44157691 61.76450977 20.43873252 63.9235525 20.43673706 66.08259583 C20.42914362 71.73288754 20.40953244 77.38307452 20.3873291 83.0333252 C20.36677776 88.81191593 20.35771557 94.59052378 20.34765625 100.36914062 C20.32628211 111.68364689 20.29113541 122.9980483 20.25 134.3125 C9.69 134.3125 -0.87 134.3125 -11.75 134.3125 C-13.30075707 129.6602288 -14.466012 125.2236001 -15.375 120.4375 C-15.57609375 119.40496094 -15.57609375 119.40496094 -15.78125 118.3515625 C-16.10772223 116.67256245 -16.42936553 114.99262464 -16.75 113.3125 C-17.55050781 114.27349609 -17.55050781 114.27349609 -18.3671875 115.25390625 C-26.68089131 124.90528213 -35.70860419 132.61144837 -48.75 134.3125 C-52.93909771 134.61873749 -57.11298473 134.71814097 -61.3125 134.75 C-62.352854 134.76023193 -63.39320801 134.77046387 -64.46508789 134.78100586 C-78.20995584 134.62627736 -90.88277306 131.05669913 -101.125 121.5625 C-109.26770753 112.80241505 -112.27550814 101.9588718 -111.99609375 90.20703125 C-111.20903843 80.94976155 -108.62345865 73.5221009 -102.75 66.3125 C-102.24726562 65.68601562 -101.74453125 65.05953125 -101.2265625 64.4140625 C-92.36815952 54.5185782 -77.81337786 50.02763644 -64.85598755 49.10684204 C-57.15386436 48.82392927 -49.45444115 48.94626448 -41.75 49.0625 C-39.41407793 49.0826093 -37.07813901 49.10085217 -34.7421875 49.1171875 C-29.07775103 49.16079956 -23.41395664 49.2273553 -17.75 49.3125 C-18.17648884 46.93505155 -18.61577233 44.56115749 -19.0625 42.1875 C-19.18044922 41.52234375 -19.29839844 40.8571875 -19.41992188 40.171875 C-20.25994725 35.7778961 -21.62970802 32.23475594 -23.75 28.3125 C-24.08 27.3225 -24.41 26.3325 -24.75 25.3125 C-33.01071635 20.26529309 -43.07667326 18.98361242 -52.45703125 20.8515625 C-58.0431501 22.37581082 -63.72968296 24.10337905 -66.96484375 29.2421875 C-68.49425959 32.213935 -69.6926435 35.14043049 -70.75 38.3125 C-82.96 38.3125 -95.17 38.3125 -107.75 38.3125 C-106.16756819 22.48818189 -100.4769183 11.54269347 -88.39453125 1.23046875 C-80.15357594 -4.74635408 -70.70716323 -8.66495122 -60.75 -10.6875 C-59.87214844 -10.87054687 -58.99429688 -11.05359375 -58.08984375 -11.2421875 C-38.06729065 -13.91186125 -16.95280954 -11.55026584 0 0 Z M-66.8125 77.0625 C-70.47310526 81.31352547 -72.07328138 85.2858747 -71.6875 90.875 C-70.96279578 95.22322532 -69.85493071 98.05610925 -66.75 101.3125 C-59.63758959 105.48632768 -52.34850565 106.56967655 -44.33203125 104.76953125 C-35.89732148 102.21227418 -29.82294665 97.47865279 -24.75 90.3125 C-21.63053918 84.39304122 -20.46206981 78.90263624 -19.75 72.3125 C-24.0875321 72.23732947 -28.42470103 72.18342637 -32.76269531 72.14770508 C-34.23281473 72.13278571 -35.702891 72.11244273 -37.17285156 72.08618164 C-47.37172644 71.90877966 -57.70455507 71.85796004 -66.8125 77.0625 Z " fill="#1C0F3A" transform="translate(985.75,785.6875)"/>
<path d="M0 0 C0.86367188 0.25523437 1.72734375 0.51046875 2.6171875 0.7734375 C18.7358183 6.38663481 31.29148266 19.08210495 39 34 C43.84938242 45.10024181 45.16992583 55.86482762 45.125 67.875 C45.12886719 68.93203125 45.13273438 69.9890625 45.13671875 71.078125 C45.13478516 72.58246094 45.13478516 72.58246094 45.1328125 74.1171875 C45.13168457 75.03097168 45.13055664 75.94475586 45.12939453 76.88623047 C45 79 45 79 44 80 C40.83387337 80.09536242 37.68959372 80.12550636 34.52319336 80.11352539 C33.03067802 80.11374443 33.03067802 80.11374443 31.50801086 80.1139679 C28.20193338 80.11326831 24.89591146 80.10547379 21.58984375 80.09765625 C19.30440807 80.09579223 17.01897199 80.09436825 14.73353577 80.09336853 C8.70501613 80.08954207 2.67652041 80.0797107 -3.35198975 80.06866455 C-9.49832841 80.05845317 -15.64467093 80.0538715 -21.79101562 80.04882812 C-33.86068762 80.03808854 -45.93034182 80.0210106 -58 80 C-57.21897701 82.58248746 -56.43167222 85.16277065 -55.640625 87.7421875 C-55.42100098 88.47074951 -55.20137695 89.19931152 -54.97509766 89.94995117 C-52.40582468 98.28823747 -48.83458632 102.85522908 -41.4765625 107.73828125 C-33.12137634 111.99494549 -23.02684769 112.44238916 -13.98046875 110.27734375 C-7.73305071 107.96383212 -3.48643494 104.95121383 -0.42480469 98.87255859 C2 96 2 96 3.86315918 95.47393799 C6.23760357 95.30431574 8.54294895 95.32556293 10.921875 95.4140625 C12.21185394 95.42679703 12.21185394 95.42679703 13.52789307 95.43978882 C16.26987962 95.47332946 19.00890538 95.5486049 21.75 95.625 C23.61063455 95.65509898 25.47131529 95.68247491 27.33203125 95.70703125 C31.88915852 95.7731224 36.44407766 95.8766447 41 96 C40.70033259 97.4352281 40.39534248 98.86934548 40.08813477 100.30297852 C39.91886978 101.1017189 39.7496048 101.90045929 39.57521057 102.72340393 C36.21910524 116.00635907 24.34788219 127.20126882 13 134 C1.15546864 140.81422157 -10.11062745 143.56611555 -23.75 143.4375 C-25.4518042 143.42614014 -25.4518042 143.42614014 -27.18798828 143.41455078 C-44.97917469 143.06749218 -60.46350136 137.86080055 -74 126 C-74.92232422 125.20142578 -74.92232422 125.20142578 -75.86328125 124.38671875 C-89.63326052 111.59376684 -95.18075165 92.78915009 -96.12890625 74.515625 C-96.63440382 51.73453462 -89.77633413 31.59749979 -74 15 C-53.47950882 -2.83988648 -25.83717971 -7.75789991 0 0 Z M-49.7890625 38.88671875 C-53.76781531 43.87485959 -57 49.46857402 -57 56 C-35.88 56 -14.76 56 7 56 C4.83850761 45.19253807 2.34759614 38.48267036 -6.8046875 32.21875 C-20.99134071 24.34288559 -38.62124607 27.10930535 -49.7890625 38.88671875 Z " fill="#1C0F3A" transform="translate(478,777)"/>
<path d="M0 0 C13.2 0 26.4 0 40 0 C40 65.01 40 130.02 40 197 C26.8 197 13.6 197 0 197 C0 131.99 0 66.98 0 0 Z " fill="#1C0F39" transform="translate(541,723)"/>
<path d="M0 0 C12.21 0 24.42 0 37 0 C37 65.01 37 130.02 37 197 C24.79 197 12.58 197 0 197 C0 131.99 0 66.98 0 0 Z " fill="#1C0F39" transform="translate(606,723)"/>
<path d="M0 0 C5.62123947 2.24849579 5.62123947 2.24849579 8.41796875 4.7578125 C9.02737305 5.29696289 9.63677734 5.83611328 10.26464844 6.39160156 C10.89918945 6.96362305 11.53373047 7.53564453 12.1875 8.125 C13.52869363 9.31131538 14.87114193 10.49621382 16.21484375 11.6796875 C16.86437012 12.25299805 17.51389648 12.82630859 18.18310547 13.41699219 C21.24583387 16.08545912 24.42416754 18.59888912 27.61328125 21.11328125 C32.12553597 24.68025184 36.55345343 28.35171144 41 32 C42.83310162 33.50028317 44.66643427 35.00028408 46.5 36.5 C57.5 45.5 57.5 45.5 60.05932617 47.66821289 C62.9036391 50.03329517 62.9036391 50.03329517 65.91918945 51.72045898 C69.75360389 54.16638852 73.2759679 56.44634101 74.57537842 61.02935791 C75.37844074 66.86334628 75.00241918 72.7032748 74.6875 78.5625 C74.63224958 80.35206279 74.58207228 82.14178981 74.53710938 83.93164062 C74.4166017 88.29185314 74.22728362 92.64410144 74 97 C73.42894531 97.32049316 72.85789062 97.64098633 72.26953125 97.97119141 C61.19527588 104.19275737 50.15130123 110.46046731 39.1875 116.875 C30.90973349 121.71750372 22.62765186 126.55205673 14.32632446 131.35406494 C12.58733425 132.36062546 10.84968713 133.36950523 9.11206055 134.37841797 C7.54258667 135.28551514 7.54258667 135.28551514 5.94140625 136.2109375 C5.01013916 136.75024902 4.07887207 137.28956055 3.11938477 137.84521484 C1 139 1 139 0 139 C0 93.13 0 47.26 0 0 Z " fill="#430FA1" transform="translate(431,436)"/>
<path d="M0 0 C12.54 0 25.08 0 38 0 C38 45.54 38 91.08 38 138 C25.46 138 12.92 138 0 138 C0 92.46 0 46.92 0 0 Z " fill="#1C0F3A" transform="translate(670,782)"/>
<path d="M0 0 C4.70646875 4.72915053 5.95291119 10.01235749 6.24609375 16.56640625 C5.82749532 22.41657458 3.44675715 27.47497996 -0.75390625 31.56640625 C-7.1305482 36.35796263 -13.47978731 37.35436285 -21.33984375 37.0546875 C-27.80847145 36.12954052 -32.70524046 33.66628869 -37.25390625 29.00390625 C-37.74890625 28.19953125 -38.24390625 27.39515625 -38.75390625 26.56640625 C-39.10582031 25.99535156 -39.45773437 25.42429687 -39.8203125 24.8359375 C-42.11407912 19.25987722 -41.83890627 11.69062505 -39.87890625 6.046875 C-36.35526415 -0.01518032 -31.49350678 -3.42907356 -25.00390625 -5.80859375 C-15.93627622 -7.6361781 -7.14882769 -5.84325114 0 0 Z " fill="#1C0F3A" transform="translate(706.75390625,727.43359375)"/>
</svg>
