<svg width="21" height="20" viewBox="0 0 21 20" fill="none" xmlns="http://www.w3.org/2000/svg">
<path d="M2.06452 0.219925C1.77163 -0.0729746 1.29675 -0.0729846 1.00386 0.219905C0.710961 0.512795 0.710951 0.987675 1.00384 1.28057L5.22201 5.49883H3.03418C1.79154 5.49883 0.784181 6.50619 0.784181 7.74883V12.2467C0.784181 13.4893 1.79154 14.4967 3.03418 14.4967H6.71374C6.89747 14.4967 7.07481 14.5641 7.21211 14.6862L11.7036 18.6799C12.5097 19.3967 13.7842 18.8245 13.7842 17.7458V14.0611L19.5036 19.7807C19.7965 20.0736 20.2714 20.0736 20.5643 19.7807C20.8572 19.4878 20.8572 19.0129 20.5643 18.72L2.06452 0.219925ZM15.9252 11.9595L17.0632 13.0975C17.525 12.163 17.7842 11.1109 17.7842 10.0002C17.7842 8.79704 17.48 7.66269 16.9438 6.67208C16.7466 6.30782 16.2914 6.17238 15.9272 6.36957C15.5629 6.56676 15.4274 7.02191 15.6246 7.38618C16.0451 8.16295 16.2842 9.05255 16.2842 10.0002C16.2842 10.6912 16.1571 11.3514 15.9252 11.9595ZM18.1723 14.2066L19.2657 15.3001C20.2279 13.7633 20.7842 11.9459 20.7842 10.0002C20.7842 7.77414 20.0559 5.71594 18.8249 4.05387C18.5783 3.72101 18.1086 3.65104 17.7758 3.89757C17.4429 4.1441 17.373 4.6138 17.6195 4.94665C18.6657 6.35921 19.2842 8.10645 19.2842 10.0002C19.2842 11.5313 18.88 12.9665 18.1723 14.2066ZM8.30422 4.33838L13.7842 9.81845V2.25025C13.7842 1.17162 12.5097 0.599385 11.7037 1.31607L8.30422 4.33838Z" fill="#231F20"/>
</svg>
