<svg width="21" height="19" viewBox="0 0 21 19" fill="none" xmlns="http://www.w3.org/2000/svg">
<path d="M13.7842 1.42944V16.9251C13.7842 18.0037 12.5097 18.576 11.7036 17.8592L7.21211 13.8655C7.07481 13.7434 6.89747 13.676 6.71374 13.676H3.03418C1.79154 13.676 0.78418 12.6686 0.78418 11.426V6.92802C0.78418 5.68538 1.79154 4.67802 3.03418 4.67802H6.71379C6.89751 4.67802 7.07483 4.6106 7.21212 4.48853L11.7037 0.495265C12.5097 -0.221405 13.7842 0.350825 13.7842 1.42944ZM17.7758 3.07677C18.1086 2.83023 18.5783 2.90021 18.8249 3.23306C20.0559 4.89514 20.7842 6.95334 20.7842 9.17945C20.7842 11.4056 20.0559 13.4638 18.8249 15.1259C18.5783 15.4588 18.1086 15.5287 17.7758 15.2822C17.4429 15.0357 17.373 14.566 17.6195 14.2331C18.6657 12.8206 19.2842 11.0733 19.2842 9.17945C19.2842 7.28565 18.6657 5.5384 17.6195 4.12585C17.373 3.79299 17.4429 3.3233 17.7758 3.07677ZM15.9272 5.54877C16.2914 5.35157 16.7466 5.48701 16.9438 5.85128C17.48 6.84189 17.7842 7.97625 17.7842 9.17945C17.7842 10.3827 17.48 11.517 16.9438 12.5077C16.7466 12.8719 16.2914 13.0074 15.9272 12.8102C15.5629 12.613 15.4274 12.1578 15.6246 11.7936C16.0451 11.0168 16.2842 10.1272 16.2842 9.17945C16.2842 8.23175 16.0451 7.34215 15.6246 6.56537C15.4274 6.20111 15.5629 5.74596 15.9272 5.54877Z" fill="#231F20"/>
</svg>
