<svg fill="none" height="13" viewBox="0 0 14 13" width="14" xmlns="http://www.w3.org/2000/svg"><path d="m8.41 6.49994 4.3-4.29c.1883-.1883.2941-.4437.2941-.71s-.1058-.521695-.2941-.709999c-.1883-.188303-.4437-.294091-.71-.294091s-.5217.105788-.71.294091l-4.29 4.299999-4.29-4.299999c-.1883-.188303-.4437-.294091-.71-.294091s-.5217.105788-.71.294091c-.1883.188304-.294092.443699-.294092.709999s.105792.5217.294092.71l4.3 4.29-4.3 4.28996c-.09373.093-.16812.2036-.21889.3255-.05077.1218-.076908.2525-.076908.3845 0 .1321.026138.2628.076908.3846.05077.1219.12516.2325.21889.3254.09296.0938.20356.1682.32542.2189.12186.0508.25257.0769.38458.0769s.26272-.0261.38458-.0769c.12186-.0507.23246-.1251.32542-.2189l4.29-4.29996 4.29 4.29996c.093.0938.2036.1682.3254.2189.1219.0508.2526.0769.3846.0769s.2627-.0261.3846-.0769c.1218-.0507.2324-.1251.3254-.2189.0937-.0929.1681-.2035.2189-.3254.0508-.1218.0769-.2525.0769-.3846 0-.132-.0261-.2627-.0769-.3845-.0508-.1219-.1252-.2325-.2189-.3255z" fill="#fff"/></svg>