<svg width="20" height="21" viewBox="0 0 20 21" fill="none" xmlns="http://www.w3.org/2000/svg">
<path d="M19 9.50049C18.7348 9.50049 18.4804 9.60585 18.2929 9.79338C18.1054 9.98092 18 10.2353 18 10.5005C18.0119 12.3735 17.3703 14.1921 16.1857 15.6429C15.001 17.0938 13.3475 18.0862 11.51 18.4491C9.67239 18.812 7.76578 18.5228 6.11851 17.6313C4.47123 16.7397 3.18641 15.3017 2.48533 13.5647C1.78424 11.8278 1.71079 9.9008 2.27762 8.11556C2.84445 6.33032 4.01607 4.79862 5.5907 3.78427C7.16533 2.76991 9.0444 2.3364 10.9043 2.5584C12.7641 2.7804 14.4884 3.64401 15.78 5.00049H13.38C13.1148 5.00049 12.8604 5.10584 12.6729 5.29338C12.4854 5.48092 12.38 5.73527 12.38 6.00049C12.38 6.2657 12.4854 6.52006 12.6729 6.70759C12.8604 6.89513 13.1148 7.00049 13.38 7.00049H17.91C18.1752 7.00049 18.4296 6.89513 18.6171 6.70759C18.8046 6.52006 18.91 6.2657 18.91 6.00049V1.50049C18.91 1.23527 18.8046 0.980918 18.6171 0.793381C18.4296 0.605845 18.1752 0.500488 17.91 0.500488C17.6448 0.500488 17.3904 0.605845 17.2029 0.793381C17.0154 0.980918 16.91 1.23527 16.91 1.50049V3.27049C15.2447 1.67855 13.0808 0.71044 10.784 0.529817C8.48729 0.349194 6.19863 0.967133 4.30492 2.27918C2.41121 3.59122 1.02861 5.51689 0.390831 7.73068C-0.246949 9.94446 -0.100787 12.3106 0.804611 14.429C1.71001 16.5475 3.31911 18.2883 5.3599 19.3573C7.40069 20.4263 9.748 20.7579 12.005 20.296C14.2621 19.834 16.2904 18.607 17.7471 16.8222C19.2039 15.0374 19.9997 12.8043 20 10.5005C20 10.2353 19.8946 9.98092 19.7071 9.79338C19.5196 9.60585 19.2652 9.50049 19 9.50049Z" fill="#B2D234"/>
</svg>
