<svg fill="none" height="17" viewBox="0 0 16 17" width="16" xmlns="http://www.w3.org/2000/svg"><path d="m15 7.5h-6v-6c0-.26522-.10536-.51957-.29289-.707107-.18754-.187536-.44189-.292893-.70711-.292893s-.51957.105357-.70711.292893c-.18753.187537-.29289.441887-.29289.707107v6h-6c-.265216 0-.51957.10536-.707107.29289-.187536.18754-.292893.44189-.292893.70711s.105357.51957.292893.70711c.187537.18753.441891.29289.707107.29289h6v6c0 .2652.10536.5196.29289.7071.18754.1875.44189.2929.70711.2929s.51957-.1054.70711-.2929c.18753-.1875.29289-.4419.29289-.7071v-6h6c.2652 0 .5196-.10536.7071-.29289.1875-.18754.2929-.44189.2929-.70711s-.1054-.51957-.2929-.70711c-.1875-.18753-.4419-.29289-.7071-.29289z" fill="#fff"/></svg>