<svg width="20" height="21" viewBox="0 0 20 21" fill="none" xmlns="http://www.w3.org/2000/svg">
<path d="M16 9.32C15.7348 9.32 15.4804 9.42536 15.2929 9.61289C15.1054 9.80043 15 10.0548 15 10.32V17.5C15 17.7652 14.8946 18.0196 14.7071 18.2071C14.5196 18.3946 14.2652 18.5 14 18.5H3C2.73478 18.5 2.48043 18.3946 2.29289 18.2071C2.10536 18.0196 2 17.7652 2 17.5V6.5C2 6.23478 2.10536 5.98043 2.29289 5.79289C2.48043 5.60536 2.73478 5.5 3 5.5H10.18C10.4452 5.5 10.6996 5.39464 10.8871 5.20711C11.0746 5.01957 11.18 4.76522 11.18 4.5C11.18 4.23478 11.0746 3.98043 10.8871 3.79289C10.6996 3.60536 10.4452 3.5 10.18 3.5H3C2.20435 3.5 1.44129 3.81607 0.87868 4.37868C0.316071 4.94129 0 5.70435 0 6.5V17.5C0 18.2956 0.316071 19.0587 0.87868 19.6213C1.44129 20.1839 2.20435 20.5 3 20.5H14C14.7956 20.5 15.5587 20.1839 16.1213 19.6213C16.6839 19.0587 17 18.2956 17 17.5V10.32C17 10.0548 16.8946 9.80043 16.7071 9.61289C16.5196 9.42536 16.2652 9.32 16 9.32ZM19.92 1.12C19.8185 0.875651 19.6243 0.681475 19.38 0.58C19.2598 0.528759 19.1307 0.50158 19 0.5H13C12.7348 0.5 12.4804 0.605357 12.2929 0.792893C12.1054 0.98043 12 1.23478 12 1.5C12 1.76522 12.1054 2.01957 12.2929 2.20711C12.4804 2.39464 12.7348 2.5 13 2.5H16.59L6.29 12.79C6.19627 12.883 6.12188 12.9936 6.07111 13.1154C6.02034 13.2373 5.9942 13.368 5.9942 13.5C5.9942 13.632 6.02034 13.7627 6.07111 13.8846C6.12188 14.0064 6.19627 14.117 6.29 14.21C6.38296 14.3037 6.49356 14.3781 6.61542 14.4289C6.73728 14.4797 6.86799 14.5058 7 14.5058C7.13201 14.5058 7.26272 14.4797 7.38458 14.4289C7.50644 14.3781 7.61704 14.3037 7.71 14.21L18 3.91V7.5C18 7.76522 18.1054 8.01957 18.2929 8.20711C18.4804 8.39464 18.7348 8.5 19 8.5C19.2652 8.5 19.5196 8.39464 19.7071 8.20711C19.8946 8.01957 20 7.76522 20 7.5V1.5C19.9984 1.36932 19.9712 1.24022 19.92 1.12Z" fill="white"/>
</svg>
