<svg fill="none" height="12" viewBox="0 0 8 12" width="8" xmlns="http://www.w3.org/2000/svg"><path d="m6.82994 5.2897-4.24-4.24c-.09296-.093724-.20356-.168118-.32542-.218887s-.25257-.076907-.38458-.076907-.26271.026138-.38457.076907-.23246.125163-.32543.218887c-.186248.18737-.29079.44082-.29079.705 0 .26419.104542.51764.29079.705l3.54 3.54-3.54 3.54c-.186248.18737-.29079.44082-.29079.705 0 .2642.104542.5176.29079.705.09344.0927.20426.166.3261.2158.12183.0497.2523.075.3839.0742.13161.0008.26207-.0245.38391-.0742.12184-.0498.23265-.1231.32609-.2158l4.24-4.24c.09373-.09296.16812-.20356.21889-.32542s.07691-.25256.07691-.38458c0-.13201-.02614-.26271-.07691-.38457s-.12516-.23246-.21889-.32543z" fill="#bdb0b0"/></svg>