<svg fill="none" height="21" viewBox="0 0 24 21" width="24" xmlns="http://www.w3.org/2000/svg"><path d="m12 14.5c-.1978 0-.3911.0587-.5556.1686-.1644.1098-.2926.266-.3683.4487-.0757.1828-.0955.3838-.0569.5778s.1338.3722.2737.512c.1398.1399.318.2351.512.2737s.3951.0188.5778-.0569.3389-.2039.4488-.3683c.1099-.1645.1685-.3578.1685-.5556 0-.2652-.1054-.5195-.2929-.7071-.1875-.1875-.4419-.2929-.7071-.2929zm10.67 1.47-8.05-13.99997c-.2602-.46649-.6402-.85505-1.1008-1.125534-.4606-.270489-.9851-.4131-1.5192-.4131s-1.0586.142611-1.5192.4131c-.4606.270484-.84061.659044-1.1008 1.125534l-8 13.99997c-.2692.454-.413857.971-.419356 1.4988-.005498.5278.128356 1.0478.388046 1.5073.25968.4595.63601.8424 1.09099 1.11.45498.2675.97251.4103 1.50032.4139h16.12c.5321.0053 1.0559-.1311 1.5179-.3951.462-.2639.8455-.646 1.1111-1.1071.2656-.461.4038-.9844.4005-1.5164-.0033-.5321-.1481-1.0537-.4195-1.5114zm-1.73 2c-.0877.156-.2155.2856-.3703.3753s-.3308.1362-.5097.1347h-16.12c-.17889.0015-.3549-.045-.50968-.1347s-.28267-.2193-.37032-.3753c-.08777-.152-.13397-.3244-.13397-.5 0-.1755.0462-.348.13397-.5l8-13.99997c.0839-.1638.2114-.30127.3684-.39726.1571-.09599.3376-.14678.5216-.14678s.3645.05079.5216.14678c.157.09599.2845.23346.3684.39726l8.05 13.99997c.0992.1499.1562.3237.165.5032s-.0309.358-.115.5168zm-8.94-11.46997c-.2652 0-.5196.10535-.7071.29289s-.2929.44189-.2929.70711v3.99997c0 .2652.1054.5196.2929.7071.1875.1876.4419.2929.7071.2929s.5196-.1053.7071-.2929c.1875-.1875.2929-.4419.2929-.7071v-3.99997c0-.26522-.1054-.51957-.2929-.70711s-.4419-.29289-.7071-.29289z" fill="#fff"/></svg>