<svg fill="none" height="17" viewBox="0 0 21 17" width="21" xmlns="http://www.w3.org/2000/svg"><path d="m17.42 4.7199c-.611-1.404-1.6655-2.56893-3.0019-3.31628-1.3364-.747348-2.881-1.035893-4.3971-.821416-1.51611.214477-2.92006.920146-3.99673 2.008866s-1.76667 2.50044-1.96426 4.01882c-.95341.22833-1.78978.79884-2.35026 1.60319-.56048.80436-.806054 1.78654-.69007 2.76002.11598.9735.58543 1.8705 1.3192 2.5207.73377.6501 1.68076 1.0082 2.66113 1.0061.26522 0 .51957-.1054.70711-.2929s.29289-.4419.29289-.7071-.10535-.5196-.29289-.7071-.44189-.2929-.70711-.2929c-.53043 0-1.03914-.2107-1.41421-.5858s-.58579-.8838-.58579-1.4142c0-.53044.21072-1.03915.58579-1.41422s.88378-.58578 1.41421-.58578c.26522 0 .51957-.10536.70711-.2929.18754-.18753.29289-.44189.29289-.7071.00256-1.18273.42429-2.32625 1.19027-3.22742.76599-.90117 1.82662-1.50163 2.99352-1.69471 1.1668-.19308 2.3643.03373 3.3798.64013 1.0154.60641 1.783 1.55314 2.1664 2.672.0572.17184.1599.32493.2973.44293s.3042.19648.4827.22707c.6661.12587 1.2699.4736 1.713.98653.4432.51293.6996 1.16082.7274 1.83811.0278.67726-.1745 1.34406-.5741 1.89156-.3996.5476-.9728.9437-1.6263 1.1238-.2572.0663-.4776.2321-.6127.4609-.135.2288-.1736.5018-.1073.7591s.2321.4776.4609.6127c.2288.135.5019.1736.7591.1073 1.0524-.2781 1.9853-.892 2.657-1.7485.6717-.8566 1.0456-1.9089 1.0648-2.99724.0193-1.08833-.3172-2.15322-.9582-3.03294-.6411-.87973-1.5517-1.52623-2.5936-1.84132zm-5.71 2.07c-.0951-.09105-.2072-.16241-.33-.21-.2434-.10002-.5165-.10002-.76 0-.1227.04759-.2349.11895-.33.21l-2.99999 3c-.1883.1883-.29409.4437-.29409.71s.10579.5217.29409.71c.18831.1883.4437.2941.71.2941s.5217-.1058.71-.2941l1.28999-1.30001v5.59001c0 .2652.1054.5196.2929.7071s.4419.2929.7071.2929.5196-.1054.7071-.2929c.1876-.1875.2929-.4419.2929-.7071v-5.59001l1.29 1.30001c.093.0937.2036.1681.3254.2189.1219.0508.2526.0769.3846.0769s.2627-.0261.3846-.0769c.1218-.0508.2324-.1252.3254-.2189.0937-.093.1681-.2036.2189-.3254.0508-.1219.0769-.2526.0769-.3846s-.0261-.2627-.0769-.3846c-.0508-.12184-.1252-.23244-.2189-.3254z" fill="#b2d234"/></svg>