<svg fill="none" height="12" viewBox="0 0 8 12" width="8" xmlns="http://www.w3.org/2000/svg"><path d="m3.29007 5.9997 3.54-3.54c.18625-.18736.29079-.44081.29079-.705 0-.26418-.10454-.51763-.29079-.705-.09297-.093724-.20357-.168118-.32543-.218887s-.25256-.076907-.38457-.076907c-.13202 0-.26272.026138-.38458.076907s-.23246.125163-.32542.218887l-4.24 4.24c-.09373.09297-.16813.20357-.218895.32543-.050769.12186-.076907.25256-.076907.38457 0 .13202.026138.26272.076907.38458.050765.12186.125165.23246.218895.32542l4.24 4.29c.09344.0927.20425.166.32609.2158.12184.0497.2523.075.38391.0742.1316.0008.26206-.0245.3839-.0742.12184-.0498.23266-.1231.3261-.2158.18625-.1874.29079-.4408.29079-.705s-.10454-.51763-.29079-.705z" fill="#bdb0b0"/></svg>