<svg width="21" height="20" viewBox="0 0 21 20" fill="none" xmlns="http://www.w3.org/2000/svg">
    <path fill="#B2D234"
        d="M13.29 15.2899L12 16.5899V10.9999C12 10.7347 11.8947 10.4803 11.7071 10.2928C11.5196 10.1053 11.2652 9.9999 11 9.9999C10.7348 9.9999 10.4804 10.1053 10.2929 10.2928C10.1054 10.4803 10 10.7347 10 10.9999V16.5899L8.71001 15.2899C8.61677 15.1967 8.50608 15.1227 8.38426 15.0722C8.26244 15.0218 8.13187 14.9958 8.00001 14.9958C7.86815 14.9958 7.73758 15.0218 7.61576 15.0722C7.49394 15.1227 7.38325 15.1967 7.29001 15.2899C7.19677 15.3831 7.12281 15.4938 7.07235 15.6156C7.02189 15.7375 6.99592 15.868 6.99592 15.9999C6.99592 16.1318 7.02189 16.2623 7.07235 16.3841C7.12281 16.506 7.19677 16.6167 7.29001 16.7099L10.29 19.7099C10.3851 19.8009 10.4973 19.8723 10.62 19.9199C10.7397 19.9728 10.8691 20.0001 11 20.0001C11.1309 20.0001 11.2603 19.9728 11.38 19.9199C11.5028 19.8723 11.6149 19.8009 11.71 19.7099L14.71 16.7099C14.8983 16.5216 15.0041 16.2662 15.0041 15.9999C15.0041 15.7336 14.8983 15.4782 14.71 15.2899C14.5217 15.1016 14.2663 14.9958 14 14.9958C13.7337 14.9958 13.4783 15.1016 13.29 15.2899ZM17.42 4.21989C16.809 2.8159 15.7545 1.65097 14.4181 0.903622C13.0817 0.156272 11.5371 -0.132273 10.021 0.0822043C8.50489 0.296681 7.10094 1.00235 6.02427 2.09107C4.9476 3.17979 4.2576 4.59151 4.06001 6.10989C3.1066 6.33822 2.27023 6.90873 1.70975 7.71308C1.14927 8.51744 0.903696 9.49962 1.01968 10.4731C1.13566 11.4466 1.60511 12.3436 2.33888 12.9938C3.07265 13.6439 4.01964 14.002 5.00001 13.9999C5.26523 13.9999 5.51958 13.8945 5.70712 13.707C5.89466 13.5195 6.00001 13.2651 6.00001 12.9999C6.00001 12.7347 5.89466 12.4803 5.70712 12.2928C5.51958 12.1053 5.26523 11.9999 5.00001 11.9999C4.46958 11.9999 3.96087 11.7892 3.5858 11.4141C3.21073 11.039 3.00001 10.5303 3.00001 9.9999C3.00001 9.46946 3.21073 8.96075 3.5858 8.58568C3.96087 8.21061 4.46958 7.99989 5.00001 7.99989C5.26523 7.99989 5.51958 7.89454 5.70712 7.707C5.89466 7.51946 6.00001 7.26511 6.00001 6.99989C6.00257 5.81717 6.4243 4.67365 7.19028 3.77248C7.95627 2.87131 9.0169 2.27085 10.1838 2.07777C11.3506 1.88469 12.5481 2.1115 13.5636 2.7179C14.579 3.32431 15.3466 4.27103 15.73 5.38989C15.7872 5.56173 15.8899 5.71483 16.0273 5.83283C16.1647 5.95083 16.3315 6.02931 16.51 6.0599C17.1761 6.18577 17.7799 6.5335 18.223 7.04643C18.6662 7.55936 18.9226 8.20725 18.9504 8.88454C18.9782 9.56182 18.7759 10.2286 18.3763 10.7761C17.9767 11.3237 17.4035 11.7198 16.75 11.8999C16.6226 11.9327 16.503 11.9903 16.3978 12.0694C16.2927 12.1485 16.2042 12.2475 16.1373 12.3608C16.0705 12.4741 16.0266 12.5994 16.0082 12.7297C15.9898 12.8599 15.9972 12.9925 16.03 13.1199C16.0628 13.2473 16.1204 13.3669 16.1995 13.4721C16.2786 13.5772 16.3776 13.6657 16.4909 13.7326C16.6042 13.7994 16.7295 13.8433 16.8598 13.8617C16.99 13.8801 17.1226 13.8727 17.25 13.8399C18.3024 13.5618 19.2353 12.9479 19.907 12.0914C20.5787 11.2348 20.9526 10.1825 20.9718 9.09416C20.9911 8.00583 20.6546 6.94094 20.0136 6.06121C19.3725 5.18149 18.4619 4.53499 17.42 4.21989Z"
    />
</svg>