<svg fill="none" height="11" viewBox="0 0 16 11" width="16" xmlns="http://www.w3.org/2000/svg"><path d="m14.7099.710105c-.0929-.093728-.2035-.168123-.3254-.218892-.1218-.050768-.2525-.076906-.3846-.076906-.132 0-.2627.026138-.3845.076906-.1219.050769-.2325.125164-.3254.218892l-7.45005 7.459995-3.13-3.14c-.09652-.09323-.21046-.16655-.33532-.21575-.12485-.04921-.25818-.07334-.39236-.07101-.13418.00232-.26659.03104-.38967.08454-.12307.05349-.23441.1307-.32765.22723-.09324.09652-.16655.21046-.21576.33531-.049201.12486-.073331.25818-.07101.39236.002322.13418.03105.26659.08454.38967.0535.12308.13071.23442.22723.32765l3.84 3.84c.09296.0937.20356.1681.32542.2189s.25257.0769.38458.0769.26272-.0261.38458-.0769.23246-.1252.32542-.2189l8.15995-8.15999c.1016-.09365.1826-.2073.238-.3338s.084-.2631.084-.4012c0-.13811-.0286-.27471-.084-.40121-.0554-.126501-.1364-.240153-.238-.333795z" fill="#fff"/></svg>