<svg fill="none" height="21" viewBox="0 0 20 21" width="20" xmlns="http://www.w3.org/2000/svg"><path d="m10 5.5c-.26522 0-.51957.10536-.70711.29289-.18753.18754-.29289.44189-.29289.70711v4c0 .2652.10536.5196.29289.7071.18754.1875.44189.2929.70711.2929.2652 0 .5196-.1054.7071-.2929s.2929-.4419.2929-.7071v-4c0-.26522-.1054-.51957-.2929-.70711-.1875-.18753-.4419-.29289-.7071-.29289zm.92 8.62c-.0219-.0637-.0522-.1243-.09-.18l-.12-.15c-.1406-.1388-.3192-.2328-.5132-.2701-.194-.0374-.39469-.0165-.5768.0601-.12119.0506-.2328.1217-.33.21-.09268.0934-.16601.2043-.21577.3261-.04977.1218-.07499.2523-.07423.3839.00158.1307.02876.2598.08.38.04491.1241.11657.2368.20989.3301.09331.0933.20601.165.33011.2099.1197.0529.24913.0802.38.0802.1309 0 .2603-.0273.38-.0802.1241-.0449.2368-.1166.3301-.2099s.165-.206.2099-.3301c.0512-.1202.0784-.2493.08-.38.0049-.0666.0049-.1334 0-.2-.0172-.0638-.0442-.1245-.08-.18zm-.92-13.62c-1.97781 0-3.91121.58649-5.5557 1.6853-1.64449 1.09882-2.92622 2.6606-3.683096 4.48787-.75687593 1.82726-.954909 3.83793-.569057 5.77773s1.338263 3.7216 2.736783 5.1202c1.39853 1.3985 3.18036 2.3509 5.12017 2.7368 1.93981.3858 3.9505.1878 5.7777-.5691 1.8273-.7569 3.3891-2.0386 4.4879-3.6831s1.6853-3.5779 1.6853-5.5557c0-1.31322-.2587-2.61358-.7612-3.82683-.5026-1.21326-1.2391-2.31565-2.1677-3.24424-.9286-.92858-2.031-1.66518-3.2443-2.16773-1.2132-.502542-2.5136-.7612-3.8268-.7612zm0 18c-1.58225 0-3.12897-.4692-4.44456-1.3482-1.3156-.8791-2.34098-2.1285-2.94648-3.5903s-.76392-3.0704-.45524-4.62222c.30868-1.55185 1.07061-2.97731 2.18943-4.09613s2.54428-1.88075 4.09613-2.18943 3.16042-.15026 4.62222.45524c1.4618.60551 2.7112 1.63088 3.5903 2.94648.879 1.31559 1.3482 2.86231 1.3482 4.44456 0 2.1217-.8429 4.1566-2.3431 5.6569-1.5003 1.5002-3.5352 2.3431-5.6569 2.3431z" fill="#fff"/></svg>