<svg width="21" height="21" viewBox="0 0 21 21" fill="none" xmlns="http://www.w3.org/2000/svg">
<path d="M13.29 15.7899L12 17.0899V11.4999C12 11.2347 11.8947 10.9803 11.7071 10.7928C11.5196 10.6053 11.2652 10.4999 11 10.4999C10.7348 10.4999 10.4804 10.6053 10.2929 10.7928C10.1054 10.9803 10 11.2347 10 11.4999V17.0899L8.71001 15.7899C8.61677 15.6967 8.50608 15.6227 8.38426 15.5722C8.26244 15.5218 8.13187 15.4958 8.00001 15.4958C7.86815 15.4958 7.73758 15.5218 7.61576 15.5722C7.49394 15.6227 7.38325 15.6967 7.29001 15.7899C7.19677 15.8831 7.12281 15.9938 7.07235 16.1156C7.02189 16.2375 6.99592 16.368 6.99592 16.4999C6.99592 16.6318 7.02189 16.7623 7.07235 16.8841C7.12281 17.006 7.19677 17.1167 7.29001 17.2099L10.29 20.2099C10.3851 20.3009 10.4973 20.3723 10.62 20.4199C10.7397 20.4728 10.8691 20.5001 11 20.5001C11.1309 20.5001 11.2603 20.4728 11.38 20.4199C11.5028 20.3723 11.6149 20.3009 11.71 20.2099L14.71 17.2099C14.8983 17.0216 15.0041 16.7662 15.0041 16.4999C15.0041 16.2336 14.8983 15.9782 14.71 15.7899C14.5217 15.6016 14.2663 15.4958 14 15.4958C13.7337 15.4958 13.4783 15.6016 13.29 15.7899ZM17.42 4.71989C16.809 3.3159 15.7545 2.15097 14.4181 1.40362C13.0817 0.656272 11.5371 0.367727 10.021 0.582204C8.50489 0.796681 7.10094 1.50235 6.02427 2.59107C4.9476 3.67979 4.2576 5.09151 4.06001 6.60989C3.1066 6.83822 2.27023 7.40873 1.70975 8.21308C1.14927 9.01744 0.903696 9.99962 1.01968 10.9731C1.13566 11.9466 1.60511 12.8436 2.33888 13.4938C3.07265 14.1439 4.01964 14.502 5.00001 14.4999C5.26523 14.4999 5.51958 14.3945 5.70712 14.207C5.89466 14.0195 6.00001 13.7651 6.00001 13.4999C6.00001 13.2347 5.89466 12.9803 5.70712 12.7928C5.51958 12.6053 5.26523 12.4999 5.00001 12.4999C4.46958 12.4999 3.96087 12.2892 3.5858 11.9141C3.21073 11.539 3.00001 11.0303 3.00001 10.4999C3.00001 9.96946 3.21073 9.46075 3.5858 9.08568C3.96087 8.71061 4.46958 8.49989 5.00001 8.49989C5.26523 8.49989 5.51958 8.39454 5.70712 8.207C5.89466 8.01946 6.00001 7.76511 6.00001 7.49989C6.00257 6.31717 6.4243 5.17365 7.19028 4.27248C7.95627 3.37131 9.0169 2.77085 10.1838 2.57777C11.3506 2.38469 12.5481 2.6115 13.5636 3.2179C14.579 3.82431 15.3466 4.77103 15.73 5.88989C15.7872 6.06173 15.8899 6.21483 16.0273 6.33283C16.1647 6.45083 16.3315 6.52931 16.51 6.5599C17.1761 6.68577 17.7799 7.0335 18.223 7.54643C18.6662 8.05936 18.9226 8.70725 18.9504 9.38454C18.9782 10.0618 18.7759 10.7286 18.3763 11.2761C17.9767 11.8237 17.4035 12.2198 16.75 12.3999C16.6226 12.4327 16.503 12.4903 16.3978 12.5694C16.2927 12.6485 16.2042 12.7475 16.1373 12.8608C16.0705 12.9741 16.0266 13.0994 16.0082 13.2297C15.9898 13.3599 15.9972 13.4925 16.03 13.6199C16.0628 13.7473 16.1204 13.8669 16.1995 13.9721C16.2786 14.0772 16.3776 14.1657 16.4909 14.2326C16.6042 14.2994 16.7295 14.3433 16.8598 14.3617C16.99 14.3801 17.1226 14.3727 17.25 14.3399C18.3024 14.0618 19.2353 13.4479 19.907 12.5914C20.5787 11.7348 20.9526 10.6825 20.9718 9.59416C20.9911 8.50583 20.6546 7.44094 20.0136 6.56121C19.3725 5.68149 18.4619 5.03499 17.42 4.71989Z" fill="white"/>
</svg>
