<svg fill="none" height="21" viewBox="0 0 16 21" width="16" xmlns="http://www.w3.org/2000/svg"><path d="m15 18.4999h-14c-.265216 0-.51957.1054-.707107.2929-.187536.1875-.292893.4419-.292893.7071s.105357.5196.292893.7071c.187537.1875.441891.2929.707107.2929h14c.2652 0 .5196-.1054.7071-.2929s.2929-.4419.2929-.7071-.1054-.5196-.2929-.7071-.4419-.2929-.7071-.2929zm-10.29-12.29 2.29-2.3v11.59c0 .2652.10536.5196.29289.7071.18754.1875.44189.2929.70711.2929s.51957-.1054.70711-.2929c.18753-.1875.29289-.4419.29289-.7071v-11.59l2.29 2.3c.093.09373.2036.16812.3254.21889.1219.05077.2526.0769.3846.0769s.2627-.02613.3846-.0769c.1218-.05077.2324-.12516.3254-.21889.0937-.09297.1681-.20357.2189-.32543s.0769-.25256.0769-.38457c0-.13202-.0261-.26272-.0769-.38458s-.1252-.23246-.2189-.32542l-4-4.000004c-.0951-.09104-.20725-.162405-.33-.21-.24346-.100018-.51654-.100018-.76 0-.12275.047595-.2349.11896-.33.21l-4 4.000004c-.09324.09323-.1672.20393-.21766.32575s-.07643.25239-.07643.38425.02597.26242.07643.38425c.05046.12182.12442.23251.21766.32575.09324.09323.20393.1672.32575.21766s.25239.07643.38425.07643.26243-.02597.38425-.07643.23251-.12443.32575-.21766z" fill="#b2d234"/></svg>